<?xml version="1.0" standalone="no"?>
<!DOCTYPE svg PUBLIC "-//W3C//DTD SVG 20010904//EN"
 "http://www.w3.org/TR/2001/REC-SVG-20010904/DTD/svg10.dtd">
<svg version="1.0" xmlns="http://www.w3.org/2000/svg"
 width="690.000000pt" height="1280.000000pt" viewBox="0 0 690.000000 1280.000000"
 preserveAspectRatio="xMidYMid meet">

<g transform="translate(0.000000,1280.000000) scale(0.100000,-0.100000)"
fill="#000000" stroke="none">
<path d="M4920 12361 c-19 -11 -46 -31 -60 -46 -21 -22 -22 -28 -10 -36 12 -8
11 -9 -5 -7 -13 2 -21 -4 -23 -17 -3 -11 -12 -26 -21 -33 -9 -7 -10 -11 -3 -7
6 3 12 1 12 -4 0 -6 -6 -11 -14 -11 -7 0 -19 -6 -25 -14 -9 -11 -6 -12 16 -9
25 4 26 3 9 -8 -15 -9 -16 -13 -5 -20 11 -7 10 -9 -4 -9 -10 0 -26 -7 -35 -16
-15 -15 -13 -16 19 -10 25 5 30 4 19 -3 -8 -6 -10 -11 -5 -11 6 0 -8 -9 -30
-20 -22 -11 -33 -20 -25 -20 9 0 6 -6 -9 -14 l-23 -13 23 -7 c23 -7 23 -8 4
-16 -12 -5 -14 -9 -6 -9 11 -1 10 -5 -5 -16 -18 -14 -18 -14 9 -15 17 0 26 -4
22 -10 -4 -6 -9 -9 -13 -7 -4 2 -17 -7 -29 -20 l-22 -23 22 -1 c12 -1 25 -1
29 0 4 0 5 -5 2 -12 -3 -8 -17 -12 -37 -10 -26 3 -28 1 -12 -6 17 -8 15 -10
-15 -11 -19 -1 -29 -4 -22 -7 10 -4 10 -8 1 -19 -8 -9 -8 -14 -1 -14 6 0 14 5
17 10 3 6 15 10 25 10 10 0 50 34 89 77 103 112 201 319 201 425 0 33 -12 34
-60 9z m3 -28 c-7 -2 -19 -2 -25 0 -7 3 -2 5 12 5 14 0 19 -2 13 -5z"/>
<path d="M4997 12289 c-9 -44 -32 -117 -52 -161 -19 -45 -32 -78 -28 -75 6 7
17 -9 54 -81 12 -23 23 -41 25 -40 1 2 -5 28 -15 58 -28 84 10 87 60 5 30 -49
22 -16 -11 41 -21 38 -27 59 -22 74 8 20 8 20 28 3 12 -10 26 -29 33 -41 7
-13 15 -21 18 -18 3 3 -6 25 -20 50 -23 41 -24 46 -9 58 13 11 14 11 7 -1 -5
-9 -4 -12 3 -7 6 3 22 -8 36 -26 14 -18 26 -29 26 -25 0 5 -17 29 -37 54 -30
36 -34 46 -22 54 18 11 26 11 34 -1 9 -15 25 -12 25 5 0 33 -86 155 -109 155
-4 0 -14 -36 -24 -81z"/>
<path d="M1057 12035 c-5 -11 -17 -60 -27 -108 -12 -60 -25 -96 -41 -113 -23
-24 -14 -34 10 -11 11 10 13 9 8 -6 -6 -15 -4 -16 16 -6 26 15 52 39 40 39 -5
0 -5 41 -1 93 5 50 7 101 6 112 l-3 20 -8 -20z"/>
<path d="M1192 12013 c-15 -27 -25 -103 -15 -103 6 0 10 6 11 13 0 6 6 32 12
56 12 47 8 64 -8 34z"/>
<path d="M4885 12022 c-10 -11 -3 -58 15 -97 l18 -40 -1 71 c-2 49 -6 71 -14
71 -7 0 -15 -3 -18 -5z"/>
<path d="M918 12007 c-5 -10 -9 -67 -9 -125 -1 -59 -3 -99 -6 -89 -4 16 -24
25 -22 10 4 -22 -3 -25 -16 -7 -8 10 -15 28 -15 40 0 11 -3 24 -7 28 -5 4 -14
26 -20 49 -13 42 -13 42 -8 -23 3 -36 8 -83 11 -104 5 -28 4 -37 -4 -32 -7 4
-14 -4 -18 -20 l-7 -26 -18 29 c-10 15 -24 59 -31 96 -26 136 -36 47 -13 -118
3 -22 3 -34 -1 -27 -3 6 -12 12 -20 12 -8 0 -14 -6 -15 -12 -2 -19 -38 94 -38
120 -1 23 -21 32 -21 8 0 -8 9 -42 19 -77 10 -35 21 -75 24 -87 6 -23 5 -24
-15 -5 -20 18 -21 18 -13 -5 6 -22 5 -23 -14 -13 -11 7 -24 23 -27 37 -11 45
-29 19 -32 -46 -2 -47 4 -86 23 -147 14 -45 29 -85 34 -88 5 -3 34 33 65 79
31 46 97 127 148 180 91 95 93 98 93 145 0 27 -3 47 -7 45 -4 -3 -9 39 -10 93
-2 56 -6 90 -10 80z"/>
<path d="M1316 12003 c-6 -14 -5 -15 5 -6 7 7 10 15 7 18 -3 3 -9 -2 -12 -12z"/>
<path d="M1395 11933 c-39 -8 -94 -36 -89 -44 5 -9 -15 -13 -48 -10 -9 1 -36
-8 -59 -21 -23 -13 -53 -29 -68 -37 -104 -55 -283 -219 -361 -330 -65 -93 -87
-141 -69 -152 7 -4 16 -6 19 -4 3 2 32 6 64 9 32 4 64 10 70 14 6 3 20 8 31 9
30 5 66 33 59 45 -5 7 -2 9 9 5 11 -4 20 1 27 13 8 16 8 20 -4 20 -8 0 -18 5
-22 12 -4 6 -3 8 3 5 13 -8 75 12 85 27 5 7 8 7 8 -2 0 -9 7 -8 26 4 l26 17
-24 13 c-12 7 -32 11 -43 9 -11 -3 -14 -2 -7 1 6 3 10 9 8 13 -3 4 11 5 30 3
39 -5 45 4 12 18 -17 7 -12 8 19 3 23 -3 50 -2 60 1 15 6 13 9 -12 21 -17 7
-43 17 -60 21 -27 7 -24 8 30 15 85 12 107 18 100 29 -4 6 9 10 30 10 45 0 37
20 -8 21 -18 1 -43 5 -57 10 -19 7 -16 7 15 3 29 -3 36 -2 25 5 -12 8 -8 11
18 11 20 0 31 4 27 10 -4 6 7 10 24 10 35 0 43 20 9 20 -13 1 -36 7 -53 14
-29 13 -28 13 45 21 l75 8 -40 13 -40 13 60 -4 c59 -4 56 2 -9 21 -16 5 -29
14 -27 19 2 10 9 10 63 -1 22 -4 27 -2 22 10 -5 13 -1 14 28 6 47 -14 68 -12
41 3 -26 14 -30 27 -11 38 8 6 9 9 1 9 -6 0 -17 2 -25 4 -7 2 -22 2 -33 -1z
m39 -19 c5 -12 2 -15 -10 -10 -8 3 -18 6 -20 6 -3 0 -2 5 1 10 9 15 22 12 29
-6z m-527 -470 c-3 -3 -12 -4 -19 -1 -8 3 -5 6 6 6 11 1 17 -2 13 -5z m-17
-34 c0 -5 -7 -7 -15 -4 -8 4 -15 8 -15 10 0 2 7 4 15 4 8 0 15 -4 15 -10z m35
-10 c-3 -5 -11 -10 -16 -10 -6 0 -7 5 -4 10 3 6 11 10 16 10 6 0 7 -4 4 -10z
m-76 -26 c10 -9 -45 -3 -59 6 -11 7 -5 8 20 4 19 -4 37 -8 39 -10z"/>
<path d="M4821 11885 c0 -11 4 -29 9 -40 8 -18 9 -18 9 5 0 14 -4 32 -9 40 -8
12 -10 12 -9 -5z"/>
<path d="M2665 11609 c-17 -5 -44 -22 -60 -39 -25 -26 -30 -40 -33 -93 -4 -75
19 -120 73 -143 134 -55 258 70 196 198 -31 65 -106 98 -176 77z m94 -82 c36
-29 30 -106 -9 -127 -69 -37 -137 40 -99 111 19 37 72 44 108 16z"/>
<path d="M4180 11608 c-66 -18 -100 -68 -100 -144 0 -85 60 -144 147 -144 37
0 103 31 103 48 0 5 -9 17 -20 27 -17 15 -24 16 -46 7 -38 -18 -68 -14 -92 11
-59 62 5 160 80 123 27 -14 32 -14 54 1 29 18 27 30 -7 54 -32 23 -76 30 -119
17z"/>
<path d="M2362 11468 l3 -143 33 -3 32 -3 0 50 c0 55 -5 52 75 55 15 1 21 9
23 33 3 31 3 32 -45 35 -41 3 -48 6 -51 26 -3 21 0 22 52 22 l56 0 0 35 0 35
-90 0 -91 0 3 -142z"/>
<path d="M2892 11468 l3 -143 33 -3 32 -3 0 50 c0 48 2 51 25 51 20 0 30 -10
50 -50 22 -43 30 -50 55 -50 40 0 43 10 14 59 -25 45 -31 71 -15 71 5 0 15 16
21 35 9 28 8 40 -5 68 -21 45 -51 57 -141 57 l-75 0 3 -142z m143 42 c0 -22
-4 -25 -35 -25 -31 0 -35 3 -38 28 -3 27 -2 28 35 25 33 -3 38 -6 38 -28z"/>
<path d="M3140 11575 c0 -33 2 -35 35 -35 l35 0 0 -110 0 -110 35 0 35 0 0
110 0 110 35 0 c33 0 35 2 35 35 l0 35 -105 0 -105 0 0 -35z"/>
<path d="M3396 11480 c-25 -73 -46 -138 -46 -146 0 -9 11 -14 30 -14 23 0 33
7 45 30 14 27 20 30 64 30 45 0 50 -2 60 -30 8 -24 16 -30 39 -30 16 0 31 2
34 5 3 3 -16 67 -42 143 l-47 137 -45 3 -45 3 -47 -131z m104 25 c5 -14 13
-37 16 -50 6 -23 3 -25 -30 -25 -20 0 -36 1 -36 3 0 10 33 97 36 97 3 0 9 -11
14 -25z"/>
<path d="M3660 11465 l0 -145 85 0 85 0 0 35 0 35 -50 0 -50 0 0 110 0 110
-35 0 -35 0 0 -145z"/>
<path d="M3870 11465 l0 -145 90 0 90 0 0 35 0 35 -55 0 c-52 0 -55 1 -55 25
0 23 3 25 51 25 49 0 50 1 47 28 -3 24 -8 28 -48 32 -32 4 -46 10 -48 22 -3
14 6 17 50 20 52 3 53 4 56 36 l3 32 -90 0 -91 0 0 -145z"/>
<path d="M4370 11465 l0 -146 88 3 87 3 3 33 3 32 -55 0 c-53 0 -56 1 -56 25
0 23 4 25 45 25 43 0 45 1 45 30 0 29 -2 30 -45 30 -38 0 -45 3 -45 20 0 17 7
20 50 20 l50 0 0 35 0 35 -85 0 -85 0 0 -145z"/>
<path d="M2507 10795 c-107 -38 -158 -171 -108 -282 46 -101 207 -138 291 -67
35 30 37 40 10 54 -16 9 -26 6 -51 -12 -21 -16 -45 -23 -73 -23 -91 0 -141 58
-134 156 3 48 10 65 33 89 16 17 47 35 68 41 34 9 46 7 94 -17 51 -25 56 -25
71 -10 16 16 15 19 -12 41 -29 23 -96 45 -133 45 -10 -1 -35 -7 -56 -15z"/>
<path d="M3885 10794 c-73 -26 -125 -106 -125 -195 0 -50 43 -129 86 -159 54
-36 144 -40 204 -7 50 27 61 50 31 67 -17 9 -25 7 -42 -9 -33 -31 -101 -37
-141 -14 -96 56 -106 190 -18 253 42 30 112 29 153 0 26 -20 32 -21 54 -9 l25
13 -31 28 c-52 46 -124 58 -196 32z"/>
<path d="M4406 10795 c-86 -30 -134 -113 -124 -215 11 -107 96 -176 208 -168
75 5 122 36 155 102 58 116 7 247 -109 281 -60 18 -80 18 -130 0z m142 -62
c58 -36 79 -129 46 -199 -17 -35 -81 -74 -123 -74 -111 0 -175 149 -104 238
48 59 121 74 181 35z"/>
<path d="M5460 10794 c-49 -21 -70 -51 -70 -102 0 -36 5 -49 30 -72 16 -15 47
-31 67 -35 21 -4 53 -13 71 -21 29 -12 33 -17 30 -46 -2 -25 -10 -36 -31 -46
-36 -17 -91 -8 -116 19 -21 22 -61 19 -61 -5 0 -18 38 -56 67 -67 41 -16 115
-11 150 11 39 23 60 83 46 126 -11 34 -67 69 -124 78 -41 7 -79 36 -79 60 0 8
8 24 18 37 24 29 74 30 105 1 21 -20 67 -22 67 -2 0 20 -45 60 -78 70 -47 13
-50 12 -92 -6z"/>
<path d="M1322 10613 c-39 -104 -67 -192 -62 -197 20 -20 55 3 70 46 l15 43
80 0 79 0 17 -45 c14 -38 21 -45 43 -45 14 0 27 4 27 8 1 4 -29 91 -66 192
l-68 185 -32 0 -33 0 -70 -187z m133 36 c15 -44 25 -82 22 -85 -3 -3 -29 -4
-60 -2 l-54 3 30 83 c16 45 31 82 32 82 2 0 15 -36 30 -81z"/>
<path d="M1650 10604 l0 -195 23 3 c20 3 22 9 25 76 l3 72 39 0 c38 0 40 -2
80 -75 37 -67 45 -75 71 -75 16 0 29 4 29 9 0 5 -19 42 -42 82 -41 71 -41 72
-21 88 45 37 57 110 26 158 -25 37 -72 53 -158 53 l-75 0 0 -196z m175 126
c21 -17 19 -73 -2 -92 -24 -20 -60 -28 -94 -21 -28 5 -29 8 -29 63 0 31 3 60
8 64 11 12 99 1 117 -14z"/>
<path d="M1954 10785 c-10 -24 6 -35 52 -35 l44 0 0 -171 0 -170 28 3 27 3 3
168 2 167 45 0 c41 0 45 2 45 25 l0 25 -120 0 c-96 0 -122 -3 -126 -15z"/>
<path d="M2260 10604 l0 -195 28 3 27 3 3 193 2 192 -30 0 -30 0 0 -196z"/>
<path d="M2780 10660 c0 -161 10 -198 62 -230 44 -26 122 -27 165 0 55 33 63
62 63 225 l0 145 -25 0 -25 0 -1 -122 c0 -142 -12 -187 -52 -206 -34 -16 -89
-9 -108 15 -10 11 -16 60 -19 162 l-5 146 -27 3 -28 3 0 -141z"/>
<path d="M3152 10608 l3 -193 100 0 100 0 3 28 3 27 -80 0 -81 0 0 165 0 165
-25 0 -25 0 2 -192z"/>
<path d="M3536 10792 c-12 -19 -136 -357 -136 -370 0 -9 9 -12 27 -10 22 2 31
11 44 48 l17 45 80 3 80 3 18 -51 c14 -40 23 -50 40 -50 32 0 36 12 20 56
-122 328 -123 329 -154 332 -17 2 -33 -1 -36 -6z m61 -134 c12 -35 25 -71 28
-80 6 -16 0 -18 -55 -18 -46 0 -61 3 -58 13 3 6 15 42 27 80 13 37 26 67 29
67 4 0 17 -28 29 -62z"/>
<path d="M4162 10608 l3 -193 25 0 25 0 3 193 2 192 -30 0 -30 0 2 -192z"/>
<path d="M4732 10608 l3 -193 25 0 25 0 3 139 3 139 95 -134 c97 -137 114
-155 140 -145 12 5 14 36 12 193 l-3 188 -27 3 -27 3 -3 -137 -3 -137 -95 136
c-83 119 -99 136 -123 137 l-27 0 2 -192z"/>
<path d="M5112 10608 l3 -193 105 0 105 0 3 28 3 27 -80 0 -81 0 0 60 0 60 70
0 c68 0 70 1 70 25 0 24 -2 25 -70 25 l-70 0 0 55 0 55 74 0 c76 0 91 6 80 34
-5 13 -24 16 -110 16 l-104 0 2 -192z"/>
<path d="M6347 9664 c-53 -19 -112 -65 -96 -75 9 -5 4 -10 -13 -14 -15 -4 -29
-14 -33 -23 -5 -14 -7 -14 -16 -2 -8 11 -12 12 -16 3 -2 -7 -12 -13 -21 -13
-32 0 10 -20 43 -20 43 0 11 -19 -35 -21 l-35 -1 30 -9 c25 -6 21 -7 -22 -6
-33 1 -54 -2 -57 -10 -3 -7 1 -10 8 -7 7 3 29 -1 47 -9 l34 -14 -65 -21 c-36
-11 -74 -23 -85 -25 -14 -2 -9 -6 18 -11 20 -5 37 -13 37 -18 0 -5 -9 -7 -19
-3 -11 3 -36 -3 -57 -14 l-38 -21 33 -6 c36 -7 29 -25 -11 -30 -13 -1 -30 -3
-38 -4 -8 -1 -4 -6 10 -10 23 -7 22 -8 -10 -10 l-35 -2 35 -10 c19 -5 43 -17
53 -26 16 -14 23 -13 89 22 39 20 96 56 127 80 114 89 253 251 275 324 7 21 5
22 -46 21 -29 -1 -70 -8 -91 -15z m-14 -41 c-7 -2 -19 -2 -25 0 -7 3 -2 5 12
5 14 0 19 -2 13 -5z m-306 -279 c-3 -3 -12 -4 -19 -1 -8 3 -5 6 6 6 11 1 17
-2 13 -5z m23 -44 c0 -5 -4 -10 -10 -10 -5 0 -10 5 -10 10 0 6 5 10 10 10 6 0
10 -4 10 -10z"/>
<path d="M6513 9628 c-19 -43 -114 -162 -182 -228 -36 -36 -64 -69 -63 -75 9
-26 14 -55 19 -120 7 -85 21 -63 22 35 1 38 5 60 9 52 5 -7 15 -10 24 -7 12 5
18 -7 27 -54 7 -34 15 -61 18 -61 7 0 -4 131 -14 156 -4 11 -3 15 4 11 6 -4
14 3 17 16 l6 22 19 -25 c11 -13 22 -49 26 -79 5 -43 9 -51 17 -37 9 16 6 52
-9 131 -5 27 -4 29 12 15 10 -8 21 -13 24 -10 3 3 14 -17 23 -45 20 -62 23
-38 3 29 -17 56 -19 80 -6 72 5 -4 12 0 15 6 5 13 6 12 35 -32 16 -24 26 -1
24 56 -2 61 -25 149 -46 177 -12 18 -14 18 -24 -5z"/>
<path d="M6200 9290 c-16 -16 -20 -33 -20 -92 0 -40 -3 -84 -6 -98 l-5 -25 14
25 c8 14 20 60 27 103 7 43 17 80 23 84 6 4 7 1 2 -7 -5 -9 -4 -11 4 -6 9 6 9
11 0 22 -15 18 -15 18 -39 -6z"/>
<path d="M5878 9243 c7 -3 16 -2 19 1 4 3 -2 6 -13 5 -11 0 -14 -3 -6 -6z"/>
<path d="M5914 9235 c-5 -11 -17 -14 -48 -10 l-41 5 33 -12 c17 -6 32 -15 32
-19 0 -14 52 -10 80 6 20 11 21 14 7 15 -10 0 -15 5 -12 10 4 7 -3 8 -21 4
-19 -5 -25 -4 -20 5 4 6 5 11 1 11 -3 0 -8 -7 -11 -15z"/>
<path d="M5845 9190 c-3 -6 1 -7 9 -4 18 7 21 14 7 14 -6 0 -13 -4 -16 -10z"/>
<path d="M6074 9173 c-3 -16 -8 -35 -10 -43 -4 -10 -2 -12 4 -5 11 12 26 75
18 75 -3 0 -8 -12 -12 -27z"/>
<path d="M3225 9110 c-27 -4 -60 -6 -71 -3 -27 6 -245 -15 -299 -28 -22 -6
-55 -10 -74 -9 -19 0 -38 -5 -42 -12 -5 -7 -24 -11 -47 -9 -24 1 -45 -3 -53
-12 -9 -9 -27 -12 -46 -10 -32 5 -188 -40 -198 -58 -4 -5 -22 -9 -41 -9 -19 0
-34 -4 -34 -10 0 -5 -8 -10 -18 -10 -10 0 -29 -11 -42 -25 -13 -14 -28 -25
-35 -25 -6 0 -32 -22 -58 -48 l-47 -48 0 -117 c0 -80 4 -117 11 -117 8 0 9
-13 5 -39 -6 -42 1 -74 14 -66 5 3 12 0 15 -6 4 -6 -5 -23 -20 -39 -20 -21
-26 -35 -21 -53 3 -13 1 -61 -5 -108 -6 -46 -13 -101 -15 -121 -6 -43 -6 -43
43 -23 44 18 48 19 34 2 -6 -8 -7 -17 -3 -21 4 -5 0 -7 -8 -6 -23 3 -60 -11
-61 -24 -1 -6 0 -19 1 -30 1 -10 -4 -22 -10 -26 -8 -5 -9 -13 -4 -21 5 -8 9
-57 10 -109 1 -80 14 -221 29 -295 2 -11 4 -26 4 -33 1 -8 10 -12 24 -10 22 3
22 2 22 -122 0 -124 0 -124 -25 -130 -28 -7 -43 -53 -34 -105 5 -27 9 -301 13
-795 1 -124 5 -170 12 -157 13 23 42 22 63 -2 30 -33 45 -93 46 -182 0 -86 0
-86 -24 -82 -29 6 -36 27 -36 106 0 43 -3 58 -12 54 -10 -3 -12 -63 -10 -268
2 -145 6 -272 8 -282 11 -36 24 -3 24 59 0 54 3 64 18 64 41 -1 45 -14 38
-106 -7 -99 -22 -138 -53 -142 -25 -4 -53 31 -53 65 0 12 -4 25 -10 28 -6 4
-10 -29 -10 -92 l0 -98 88 -43 c169 -82 428 -133 830 -163 339 -25 1122 0
1287 42 44 11 45 13 45 50 0 22 5 39 11 39 7 0 10 -15 7 -40 -4 -47 -8 -47
110 -21 96 22 176 52 151 58 -10 3 -15 15 -15 36 0 31 -63 459 -68 465 -4 4
-16 -232 -16 -320 0 -75 -1 -79 -26 -88 -14 -6 -37 -10 -51 -10 -23 0 -25 3
-20 33 4 17 9 195 13 394 4 199 10 366 13 371 3 6 26 12 51 14 l44 3 13 -65
c6 -36 20 -120 29 -188 9 -67 19 -120 23 -117 3 4 8 90 11 193 l5 187 38 3 39
3 -6 -38 c-9 -58 -27 -600 -22 -673 2 -36 7 -93 11 -127 l7 -62 28 14 c49 25
70 62 70 119 -1 45 -2 49 -14 34 -21 -28 -46 -21 -62 17 -12 30 -13 76 -4 323
11 299 19 366 51 405 15 20 19 49 24 158 3 74 8 163 10 199 2 36 4 89 5 118 0
62 17 70 23 10 2 -26 4 -11 5 36 2 58 -2 82 -12 90 -13 9 -14 40 -7 196 6 155
5 188 -8 203 -9 11 -10 17 -3 17 7 0 12 8 12 18 0 14 -2 15 -10 2 -8 -13 -9
-13 -14 0 -13 42 -14 44 -15 21 -1 -20 -3 -21 -16 -11 -12 10 -15 10 -15 -4 0
-9 5 -16 10 -16 6 0 10 -4 10 -9 0 -5 -21 -8 -47 -5 -192 18 -244 23 -253 29
-14 9 -12 35 3 36 6 0 3 4 -8 8 -15 7 -26 2 -45 -21 -28 -33 -61 -31 -55 3 5
25 -12 25 -20 -1 -8 -24 -21 -26 -29 -4 -8 22 -8 22 12 27 11 3 7 5 -10 6 -15
0 -33 8 -42 16 -10 11 -17 12 -22 4 -3 -6 -1 -15 6 -19 8 -5 7 -9 -4 -13 -10
-4 -16 -1 -16 8 0 8 -7 15 -15 15 -10 0 -15 10 -15 31 0 36 -21 35 -30 -2 -4
-14 -13 -24 -23 -23 -9 0 -40 1 -68 2 l-51 2 4 138 c3 129 5 137 23 137 19 0
20 -6 16 -120 -2 -66 0 -117 4 -113 4 4 18 3 31 -2 17 -7 24 -6 25 3 0 6 8 59
17 117 17 101 19 105 44 108 25 3 27 0 33 -50 3 -29 10 -84 14 -123 9 -68 9
-67 8 38 l-2 107 33 16 c30 14 32 18 32 72 1 52 2 55 15 38 8 -11 15 -29 15
-40 0 -17 2 -18 10 -6 5 8 10 25 10 38 0 22 4 23 48 21 41 -3 47 -1 49 16 8
107 18 120 28 40 6 -52 28 -91 44 -80 5 2 12 28 16 57 18 122 14 188 -11 188
-8 0 -14 7 -14 16 0 13 3 14 14 5 8 -7 23 -11 33 -9 14 2 17 -3 15 -22 -2 -14
-3 -96 -3 -183 -1 -137 2 -161 17 -178 9 -10 19 -17 22 -14 3 3 -3 14 -12 24
-11 12 -15 25 -10 33 11 17 14 38 5 38 -4 0 -7 9 -7 20 0 17 5 18 46 14 61 -8
110 -23 110 -35 0 -6 5 -7 10 -4 6 3 10 2 10 -3 0 -6 7 -13 16 -16 8 -3 12 -2
9 4 -3 6 5 10 18 10 25 0 25 2 29 98 2 53 -1 107 -6 120 -7 16 -6 26 0 30 6 4
16 28 23 54 11 38 11 63 1 130 -7 46 -16 94 -21 108 -5 14 -11 36 -14 50 -3
14 -7 37 -11 52 -3 15 -2 33 3 40 11 18 11 29 -4 65 -9 23 -13 96 -13 256 0
202 -2 225 -18 240 -11 10 -26 14 -40 10 -18 -4 -24 -1 -29 15 -3 11 -19 25
-35 31 -34 12 -50 7 -42 -12 2 -7 -2 -30 -11 -50 -8 -20 -15 -63 -15 -96 0
-70 -6 -91 -29 -91 -9 0 -3 -8 17 -20 35 -22 39 -36 18 -66 -13 -16 -13 -22 0
-42 13 -20 13 -23 -1 -28 -8 -4 -34 -3 -58 0 -40 6 -43 9 -59 60 -21 63 -22
83 -5 89 9 3 9 7 -1 20 -11 12 -19 14 -39 6 -39 -15 -51 6 -14 22 17 8 34 21
37 29 4 8 8 63 9 123 3 118 -6 144 -49 131 -32 -10 -39 -20 -27 -42 6 -12 12
-34 13 -49 1 -15 7 -31 12 -35 6 -4 12 -37 13 -75 3 -53 1 -65 -9 -55 -6 6
-13 24 -15 39 -1 16 -4 47 -6 69 -3 25 -13 51 -26 65 -21 23 -23 23 -35 7 -14
-19 -36 -24 -36 -9 0 5 -8 12 -17 14 -10 3 -4 5 13 6 37 1 51 15 56 56 3 26
-1 31 -37 43 -22 7 -65 14 -95 16 -30 1 -67 7 -81 13 -91 39 -817 77 -984 53z
m1034 -113 c6 -8 8 -16 5 -19 -10 -10 -44 4 -44 18 0 18 24 18 39 1z m42 -54
c13 -17 13 -17 -6 -3 -11 8 -22 16 -24 17 -2 2 0 3 6 3 6 0 17 -8 24 -17z m66
11 c-3 -3 -12 -4 -19 -1 -8 3 -5 6 6 6 11 1 17 -2 13 -5z m450 -196 c-3 -8 -6
-5 -6 6 -1 11 2 17 5 13 3 -3 4 -12 1 -19z m-513 -54 c22 -22 20 -30 -14 -54
-35 -25 -80 -21 -80 6 0 13 7 15 30 11 37 -8 38 3 3 27 -16 9 -21 16 -13 13 8
-2 24 -1 35 4 11 4 21 8 22 8 1 1 9 -6 17 -15z m86 0 c0 -14 -14 -33 -21 -28
-15 9 -10 31 6 31 8 0 15 -1 15 -3z m57 -21 c4 -10 11 -21 17 -25 12 -8 16
-26 23 -117 4 -60 3 -73 -8 -69 -8 3 -14 15 -13 27 1 19 -3 21 -23 16 -12 -3
-23 -1 -23 4 0 5 12 12 26 15 20 5 25 12 22 34 -2 15 -12 31 -24 37 -11 6 -19
16 -16 23 2 6 -1 12 -7 12 -6 0 -11 -13 -11 -30 0 -32 -9 -36 -41 -20 -18 10
-17 13 16 41 19 17 35 40 35 50 0 24 18 25 27 2z m-79 -29 c11 -8 12 -13 3
-18 -18 -12 -40 12 -33 37 4 15 7 17 10 7 3 -8 12 -20 20 -26z m72 -75 c0 -5
-4 -9 -10 -9 -5 0 -10 7 -10 16 0 8 5 12 10 9 6 -3 10 -10 10 -16z m0 -29 c0
-5 -4 -10 -10 -10 -5 0 -10 5 -10 10 0 6 5 10 10 10 6 0 10 -4 10 -10z m-44
-31 c13 -21 -13 -33 -48 -22 l-33 11 28 1 c16 1 26 5 22 11 -3 6 1 10 9 10 8
0 18 -5 22 -11z m-2018 -16 c-2 -10 -11 -19 -21 -21 -16 -3 -17 -1 -7 17 13
25 33 28 28 4z m2297 -16 c15 -12 16 -19 7 -44 -8 -24 -7 -37 4 -58 23 -44 18
-57 -18 -53 l-33 3 3 55 c2 42 -1 57 -14 67 -14 10 -15 15 -4 28 15 19 31 19
55 2z m-2265 -11 c0 -3 -4 -8 -10 -11 -5 -3 -10 -1 -10 4 0 6 5 11 10 11 6 0
10 -2 10 -4z m2054 -11 c3 -9 -1 -18 -10 -22 -19 -7 -39 11 -30 26 10 16 33
13 40 -4z m-1844 -5 c0 -5 -5 -10 -11 -10 -5 0 -7 5 -4 10 3 6 8 10 11 10 2 0
4 -4 4 -10z m68 -22 c-15 -15 -17 -22 -8 -28 9 -6 7 -11 -8 -19 -33 -18 -41
-13 -33 17 4 15 17 31 29 37 12 5 22 13 22 18 0 4 4 6 10 2 5 -3 0 -15 -12
-27z m1342 18 c0 -9 -30 -14 -35 -6 -4 6 3 10 14 10 12 0 21 -2 21 -4z m350
-6 c0 -5 -11 -10 -24 -10 -14 0 -28 5 -31 10 -4 6 7 10 24 10 17 0 31 -4 31
-10z m-1975 -20 c3 -5 1 -10 -4 -10 -6 0 -11 5 -11 10 0 6 2 10 4 10 3 0 8 -4
11 -10z m-5 -30 c0 -5 -5 -10 -11 -10 -5 0 -7 5 -4 10 3 6 8 10 11 10 2 0 4
-4 4 -10z m543 4 c14 -14 -15 -44 -42 -44 -23 0 -28 4 -26 23 1 12 3 23 4 25
2 5 58 2 64 -4z m1522 -24 c19 -1 19 -1 2 -11 -23 -14 -47 -5 -47 18 0 13 3
14 12 5 7 -7 21 -12 33 -12z m-405 0 c11 -7 4 -10 -25 -10 -29 0 -36 3 -25 10
8 5 20 10 25 10 6 0 17 -5 25 -10z m13 -27 c-7 -2 -21 -2 -30 0 -10 3 -4 5 12
5 17 0 24 -2 18 -5z m337 -3 c0 -5 -9 -10 -19 -10 -11 0 -23 5 -26 10 -4 6 5
10 19 10 14 0 26 -4 26 -10z m-1775 -20 c-3 -5 -11 -10 -16 -10 -6 0 -7 5 -4
10 3 6 11 10 16 10 6 0 7 -4 4 -10z m62 4 c-3 -3 -12 -4 -19 -1 -8 3 -5 6 6 6
11 1 17 -2 13 -5z m1513 -4 c11 -8 7 -9 -15 -4 -37 8 -45 14 -19 14 10 0 26
-5 34 -10z m-1610 -10 c0 -5 -10 -10 -22 -9 -22 0 -22 1 -3 9 11 5 21 9 23 9
1 1 2 -3 2 -9z m-192 -17 c-4 -22 -48 -31 -48 -10 0 19 10 27 32 27 13 0 18
-6 16 -17z m2276 11 c9 -3 16 -13 16 -21 0 -21 -54 -13 -58 10 -4 18 13 22 42
11z m-294 -24 c12 -8 10 -10 -10 -10 -14 0 -32 5 -40 10 -12 8 -10 10 10 10
14 0 32 -5 40 -10z m-126 -28 c-9 -2 -21 2 -28 9 -8 9 -8 10 1 5 6 -3 15 -1
19 5 4 8 9 7 15 -2 6 -9 3 -15 -7 -17z m-1037 -9 c3 -7 -13 -11 -41 -11 -53 1
-62 15 -13 21 41 5 50 3 54 -10z m78 7 c3 -6 -4 -10 -17 -10 -18 0 -20 2 -8
10 19 12 18 12 25 0z m65 0 c0 -5 -12 -10 -26 -10 -14 0 -23 4 -19 10 3 6 15
10 26 10 10 0 19 -4 19 -10z m69 -4 c10 -12 9 -14 -6 -11 -10 2 -22 4 -26 4
-10 1 1 21 12 21 5 0 14 -6 20 -14z m195 5 c3 -5 -7 -11 -22 -14 -31 -6 -37
-3 -27 12 8 13 42 14 49 2z m839 2 c-7 -2 -19 -2 -25 0 -7 3 -2 5 12 5 14 0
19 -2 13 -5z m-1430 -9 c11 -11 -3 -24 -18 -18 -8 4 -12 10 -9 15 6 11 18 12
27 3z m42 -4 c-3 -5 -10 -10 -16 -10 -5 0 -9 5 -9 10 0 6 7 10 16 10 8 0 12
-4 9 -10z m418 3 c-7 -2 -19 -2 -25 0 -7 3 -2 5 12 5 14 0 19 -2 13 -5z m307
-3 c0 -5 -4 -10 -10 -10 -5 0 -10 5 -10 10 0 6 5 10 10 10 6 0 10 -4 10 -10z
m-890 -10 c0 -5 -9 -10 -21 -10 -11 0 -17 5 -14 10 3 6 13 10 21 10 8 0 14 -4
14 -10z m960 6 c0 -11 -19 -15 -25 -6 -3 5 1 10 9 10 9 0 16 -2 16 -4z m65 -6
c-3 -5 -10 -10 -16 -10 -5 0 -9 5 -9 10 0 6 7 10 16 10 8 0 12 -4 9 -10z m317
-16 c47 -5 72 -3 82 5 11 10 24 8 58 -7 24 -11 73 -25 111 -32 37 -7 70 -16
73 -21 3 -5 0 -9 -6 -9 -6 0 -10 -6 -9 -12 1 -7 -1 -21 -6 -31 -4 -10 -2 -23
5 -32 10 -12 9 -16 -4 -21 -22 -8 -51 15 -36 30 16 16 12 24 -25 42 -19 9 -35
20 -35 25 0 5 -18 9 -40 9 -28 0 -40 -4 -40 -14 0 -8 -5 -18 -12 -22 -7 -5 -9
-2 -5 8 6 17 -10 38 -30 38 -7 0 -12 -8 -11 -17 3 -35 -2 -54 -12 -48 -6 4
-10 12 -9 18 7 54 -25 66 -37 15 l-8 -33 -5 30 c-5 22 -13 31 -30 33 -13 2
-21 0 -18 -5 2 -4 1 -17 -3 -28 -8 -21 -9 -21 -25 30 -2 8 -14 15 -26 15 -17
0 -20 -4 -15 -24 3 -14 1 -28 -6 -32 -6 -4 -8 -3 -4 4 3 6 2 22 -4 37 -8 21
-15 26 -31 22 -21 -6 -69 10 -80 26 -3 5 -10 8 -15 7 -5 -1 -10 2 -11 7 -3 8
140 1 269 -13z m440 -8 c-2 -15 5 -40 15 -54 9 -15 18 -30 18 -34 0 -14 15
-20 15 -6 0 11 6 14 18 11 21 -5 45 -60 31 -69 -5 -3 -12 2 -16 11 -5 16 -7
16 -15 1 -5 -9 -6 -21 -3 -26 3 -6 3 -16 -2 -22 -5 -9 -10 -1 -14 22 l-6 35
-8 -34 c-8 -33 -9 -33 -17 -12 -7 19 -11 21 -23 11 -13 -10 -15 -9 -15 9 0 11
-4 21 -10 21 -5 0 -10 -9 -10 -20 0 -23 -7 -24 -47 -9 -19 7 -24 12 -14 18 7
5 12 11 12 15 -1 3 -1 24 -1 45 0 36 3 40 28 43 21 2 27 8 28 28 1 46 4 51 22
48 12 -3 16 -12 14 -32z m-2102 20 c0 -16 -14 -36 -25 -36 -7 0 -16 -8 -19
-17 -6 -14 -9 -15 -15 -4 -13 20 -33 2 -27 -23 2 -11 -1 -32 -8 -45 l-13 -24
-6 24 c-3 13 -5 33 -3 44 2 11 -2 23 -7 27 -18 11 13 39 36 32 13 -4 17 -2 12
5 -5 8 1 10 18 6 14 -4 28 -2 31 4 7 11 26 16 26 7z m210 -6 c0 -5 -9 -10 -20
-10 -11 0 -20 5 -20 10 0 6 9 10 20 10 11 0 20 -4 20 -10z m40 6 c0 -11 -19
-15 -25 -6 -3 5 1 10 9 10 9 0 16 -2 16 -4z m1640 -6 c0 -5 -9 -10 -20 -10
-11 0 -20 5 -20 10 0 6 9 10 20 10 11 0 20 -4 20 -10z m-1800 -10 c0 -5 -7
-10 -16 -10 -8 0 -12 5 -9 10 3 6 10 10 16 10 5 0 9 -4 9 -10z m50 6 c0 -2 -7
-6 -15 -10 -8 -3 -15 -1 -15 4 0 6 7 10 15 10 8 0 15 -2 15 -4z m-294 -28 c12
-8 11 -78 -1 -78 -9 0 -11 4 -14 38 0 7 -6 10 -11 7 -6 -4 -10 -16 -8 -27 2
-12 -3 -23 -11 -26 -10 -3 -12 1 -9 16 3 12 0 29 -8 39 -12 17 -13 16 -15 -7
-1 -14 -1 -31 0 -37 1 -7 -3 -13 -9 -13 -5 0 -10 9 -10 20 0 11 -4 20 -10 20
-5 0 -10 -17 -10 -37 0 -25 -3 -33 -9 -24 -9 14 -8 54 3 88 4 14 17 23 34 25
36 5 76 3 88 -4z m391 -35 c-3 -10 -5 -2 -5 17 0 19 2 27 5 18 2 -10 2 -26 0
-35z m-537 -13 c0 -5 -4 -10 -10 -10 -5 0 -10 5 -10 10 0 6 5 10 10 10 6 0 10
-4 10 -10z m260 -4 c0 -8 -4 -18 -10 -21 -5 -3 -10 3 -10 14 0 12 5 21 10 21
6 0 10 -6 10 -14z m-325 -16 c-3 -5 -14 -10 -23 -10 -15 0 -15 2 -2 10 20 13
33 13 25 0z m2155 -30 c0 -5 -4 -10 -10 -10 -5 0 -10 5 -10 10 0 6 5 10 10 10
6 0 10 -4 10 -10z m86 -27 c-11 -11 -19 6 -11 24 8 17 8 17 12 0 3 -10 2 -21
-1 -24z m52 -129 c12 -4 22 -13 22 -20 0 -17 -2 -17 -35 -2 -41 19 -33 34 13
22z m172 -34 c0 -5 -5 -10 -11 -10 -5 0 -7 5 -4 10 3 6 8 10 11 10 2 0 4 -4 4
-10z m50 -20 c0 -5 -4 -10 -10 -10 -5 0 -10 5 -10 10 0 6 5 10 10 10 6 0 10
-4 10 -10z m-68 -97 c-8 -24 -17 -13 -19 25 -3 36 -3 36 10 12 8 -14 12 -31 9
-37z m56 -18 c-1 -13 -6 -21 -10 -17 -5 5 -6 16 -2 25 9 24 14 21 12 -8z
m-781 -78 c5 -3 7 -24 5 -47 -3 -31 -8 -40 -19 -36 -8 3 -35 6 -59 6 l-44 0 0
38 c0 21 2 41 5 44 7 7 99 3 112 -5z m343 1 c0 -10 3 -9 9 1 16 24 31 1 31
-48 0 -46 -12 -71 -35 -71 -6 0 -21 23 -33 50 -26 59 -27 64 -8 57 10 -4 13
-1 9 9 -3 8 1 14 11 14 9 0 16 -6 16 -12z m-1902 -58 c1 -39 -3 -50 -15 -50
-10 0 -13 6 -9 16 3 9 6 31 6 50 0 54 16 39 18 -16z m-88 20 c0 -11 -4 -20
-10 -20 -5 0 -10 9 -10 20 0 11 5 20 10 20 6 0 10 -9 10 -20z m190 -25 l0 -45
-37 -1 c-22 -1 -30 -3 -18 -6 27 -7 35 -21 35 -65 0 -45 -26 -54 -33 -10 -2
15 -4 -13 -4 -63 0 -49 2 -78 4 -62 7 43 33 34 33 -11 0 -60 -46 -86 -71 -39
-13 23 -14 191 -1 211 3 6 7 36 7 66 0 60 -7 54 78 69 4 0 7 -19 7 -44z m796
-40 c14 -22 16 -42 10 -128 -6 -86 -10 -105 -27 -119 -26 -22 -53 -23 -73 -2
-24 23 -23 230 1 256 24 27 69 23 89 -7z m-402 -1 c9 -8 16 -31 16 -50 0 -27
-4 -34 -20 -34 -15 0 -20 7 -20 25 0 14 -4 25 -10 25 -5 0 -10 -16 -10 -35 0
-32 2 -35 30 -35 l30 0 0 -62 c0 -71 -17 -98 -62 -98 -22 0 -31 6 -39 28 -14
36 -6 216 11 236 16 20 54 20 74 0z m136 -3 c0 -14 -8 -21 -27 -23 -25 -3 -28
-7 -28 -38 0 -30 3 -35 23 -33 17 2 22 -2 22 -22 0 -20 -5 -25 -25 -25 -22 0
-25 -4 -25 -35 0 -32 2 -35 31 -35 25 0 30 -4 27 -20 -2 -12 -6 -21 -10 -20
-5 0 -26 0 -48 0 l-40 0 0 135 0 135 50 0 c43 0 50 -3 50 -19z m78 -28 l10
-48 1 48 c1 43 3 47 25 47 21 0 24 -4 22 -32 -2 -18 -4 -79 -5 -135 -1 -101
-2 -103 -24 -103 -20 0 -25 7 -34 48 l-10 47 -2 -47 c-1 -43 -4 -48 -23 -48
-23 0 -23 1 -20 135 3 134 3 135 26 135 20 0 25 -7 34 -47z m810 35 c5 -7 13
-30 16 -50 5 -35 4 -38 -19 -38 -20 0 -25 5 -25 25 0 14 -4 25 -10 25 -5 0
-10 -12 -10 -27 0 -16 -3 -59 -7 -97 -5 -56 -4 -68 8 -64 7 2 16 15 19 28 3
13 13 24 23 26 25 3 23 -60 -3 -86 -23 -23 -30 -24 -65 -8 -27 12 -27 9 -25
148 1 71 5 99 17 112 19 21 66 24 81 6z m116 0 c14 -6 28 -19 32 -30 6 -19 -3
-191 -12 -220 -7 -24 -50 -33 -80 -18 -23 13 -24 18 -24 105 0 139 6 159 57
174 1 1 13 -4 27 -11z m-1274 0 c0 -2 7 -52 15 -113 20 -147 19 -155 -5 -155
-15 0 -20 7 -20 25 0 16 -6 25 -15 25 -8 0 -15 -8 -15 -19 0 -27 -19 -36 -75
-36 l-50 0 -3 133 c-2 127 -2 132 18 132 19 0 20 -6 20 -110 0 -109 0 -110 24
-110 25 0 31 21 51 178 6 46 9 52 31 52 13 0 24 -1 24 -2z m-200 -18 c12 -7
15 -32 16 -107 0 -125 -3 -142 -33 -156 -42 -19 -53 9 -53 131 0 57 5 112 10
123 12 21 36 24 60 9z m-236 -228 c1 -35 5 -49 15 -48 19 1 25 -43 6 -50 -8
-4 -23 -3 -32 1 -11 4 -13 9 -6 12 8 3 8 10 -1 28 -7 13 -11 43 -10 67 2 24 3
47 3 53 1 5 6 4 12 -2 6 -6 12 -33 13 -61z m-64 -3 c0 -10 -4 -19 -10 -19 -5
0 -10 12 -10 26 0 14 4 23 10 19 6 -3 10 -15 10 -26z m-1 -72 c-1 -31 -1 -31
-9 -7 -11 36 -11 52 0 45 6 -3 10 -21 9 -38z m2071 -2 c0 -8 -4 -15 -10 -15
-5 0 -7 7 -4 15 4 8 8 15 10 15 2 0 4 -7 4 -15z m-711 -150 c16 -14 40 -41 51
-60 21 -35 22 -35 95 -35 93 0 99 -7 93 -105 -7 -99 -38 -161 -99 -195 -41
-23 -53 -25 -189 -25 -129 0 -149 2 -185 21 -79 43 -108 98 -108 205 0 42 4
82 7 88 4 6 38 11 82 11 l75 0 56 60 c30 33 63 60 73 60 10 0 32 -11 49 -25z
m-483 -515 c15 -34 31 -57 35 -53 4 4 19 31 34 58 32 62 22 21 -15 -60 l-28
-60 -36 77 c-38 80 -42 98 -27 98 6 0 22 -27 37 -60z m149 -25 c0 -54 -4 -80
-12 -82 -10 -4 -13 17 -13 82 0 65 3 86 13 83 8 -3 12 -29 12 -83z m140 75
l30 -8 -27 -1 c-27 -1 -27 -2 -30 -73 -2 -46 -7 -73 -15 -76 -10 -3 -13 16
-13 72 0 74 -1 76 -25 76 -14 0 -25 5 -25 10 0 11 60 11 105 0z m144 -68 c17
-38 31 -74 31 -80 0 -21 -20 -13 -32 13 -9 19 -19 25 -45 25 -26 0 -36 -6 -45
-25 -10 -22 -35 -38 -26 -17 16 40 74 152 79 152 3 0 20 -31 38 -68z m91 -6
l0 -75 38 -4 c30 -3 28 -4 -15 -5 l-53 -2 0 80 c0 64 3 80 15 80 12 0 15 -15
15 -74z m130 -6 c0 -64 -3 -80 -15 -80 -17 0 -19 24 -9 108 10 79 24 62 24
-28z m94 20 c15 -33 29 -60 31 -60 3 0 18 27 35 60 17 33 35 60 40 60 6 0 10
-34 10 -80 0 -67 -3 -80 -16 -80 -14 0 -16 8 -11 50 3 28 3 50 -2 50 -4 0 -18
-22 -31 -50 -13 -27 -27 -50 -31 -50 -4 0 -20 26 -35 58 l-28 57 -6 -60 -7
-60 -1 83 c-2 102 13 109 52 22z m-1438 -409 c96 -44 106 -90 102 -465 -3
-270 -4 -286 -24 -313 -29 -39 -66 -55 -110 -47 -47 9 -91 47 -105 92 -13 42
-25 577 -14 649 8 53 50 103 87 103 13 0 41 -9 64 -19z m282 -27 l23 -7 -3
-356 -3 -356 110 -15 110 -16 -1 -39 c-3 -79 -1 -76 -41 -71 -21 3 -94 10
-163 17 -69 7 -129 15 -135 20 -6 5 -9 153 -7 418 l2 411 43 0 c23 0 52 -3 65
-6z m1710 -75 l-3 -54 -87 -5 c-47 -3 -88 -7 -91 -10 -2 -3 -7 -56 -10 -118
l-5 -114 82 4 81 3 3 -49 c2 -27 -1 -53 -6 -58 -5 -5 -44 -12 -86 -15 l-76 -6
0 -87 c0 -48 -3 -102 -7 -120 l-6 -33 54 7 c30 4 73 10 97 13 l42 6 0 -56 c0
-31 -4 -58 -9 -62 -10 -5 -40 -9 -166 -20 -38 -3 -87 -8 -107 -11 l-38 -6 0
134 c0 129 19 700 23 705 6 6 303 18 310 12 5 -3 7 -30 5 -60z m-535 50 c90
-25 128 -93 119 -216 l-4 -61 -64 -4 c-36 -2 -69 -1 -74 0 -6 2 -10 34 -10 72
0 77 -12 94 -66 94 -66 0 -66 1 -68 -325 l-1 -293 26 -10 c33 -11 76 -1 88 22
5 10 11 65 12 123 l2 104 -37 3 -37 3 3 57 3 57 114 3 113 3 -7 -183 c-8 -218
-18 -246 -99 -287 -41 -21 -63 -25 -135 -25 -101 -1 -152 19 -190 74 l-23 35
6 310 c7 292 8 313 29 355 23 46 63 77 120 90 48 12 137 11 180 -1z m-527 -64
c94 -506 134 -737 134 -780 0 -13 -13 -15 -77 -13 l-78 3 -14 85 c-8 47 -19
88 -25 92 -6 4 -43 8 -83 8 l-72 0 -12 -75 c-6 -41 -17 -81 -23 -89 -17 -21
-146 -10 -146 13 0 20 63 344 119 610 23 106 41 197 41 202 0 6 48 8 112 7
l113 -3 11 -60z"/>
<path d="M3860 7660 c0 -5 5 -10 10 -10 6 0 10 5 10 10 0 6 -4 10 -10 10 -5 0
-10 -4 -10 -10z"/>
<path d="M3230 7474 c0 -72 3 -95 13 -92 8 3 13 34 15 96 2 77 0 92 -13 92
-12 0 -15 -16 -15 -96z"/>
<path d="M2850 7410 c0 -25 4 -39 10 -35 6 3 10 19 10 35 0 16 -4 32 -10 35
-6 4 -10 -10 -10 -35z"/>
<path d="M4000 7488 c0 -40 -3 -83 -6 -95 -5 -17 -2 -23 10 -23 14 0 16 14 16
95 0 57 -4 95 -10 95 -6 0 -10 -31 -10 -72z"/>
<path d="M2728 7455 c-3 -14 -1 -25 3 -25 5 0 9 11 9 25 0 14 -2 25 -4 25 -2
0 -6 -11 -8 -25z"/>
<path d="M2534 7450 c0 -52 1 -74 3 -47 2 26 2 68 0 95 -2 26 -3 4 -3 -48z"/>
<path d="M3549 7067 c-8 -7 -24 -25 -34 -40 l-18 -28 36 -37 37 -37 37 37 37
37 -29 40 c-29 43 -40 48 -66 28z"/>
<path d="M3343 6973 c-21 -8 -16 -91 8 -132 28 -49 63 -73 115 -79 46 -5 56 5
28 29 -24 20 -51 79 -58 130 -5 37 -12 48 -29 53 -25 7 -47 7 -64 -1z"/>
<path d="M3707 6925 c-8 -53 -29 -99 -65 -137 l-26 -28 43 0 c26 0 57 8 77 20
42 26 76 96 72 147 -3 38 -4 38 -49 41 l-46 3 -6 -46z"/>
<path d="M3485 6908 c10 -36 39 -88 49 -88 12 0 -1 59 -19 87 -20 30 -38 30
-30 1z"/>
<path d="M3622 6903 c-23 -34 -37 -83 -22 -83 13 0 39 40 50 79 11 38 -2 40
-28 4z"/>
<path d="M3510 6602 c0 -6 -3 -17 -6 -26 -4 -12 0 -16 16 -16 16 0 21 5 18 22
-3 21 -28 39 -28 20z"/>
<path d="M2377 6073 c-4 -3 -7 -131 -7 -283 0 -257 1 -278 19 -294 10 -9 25
-14 35 -10 14 5 16 35 16 284 0 153 -3 285 -6 294 -6 16 -45 22 -57 9z"/>
<path d="M3215 5760 c-15 -88 -26 -162 -24 -164 8 -8 98 -10 105 -3 9 8 -37
327 -46 327 -4 0 -19 -72 -35 -160z"/>
<path d="M4605 8950 c-3 -5 1 -10 10 -10 9 0 13 5 10 10 -3 6 -8 10 -10 10 -2
0 -7 -4 -10 -10z"/>
<path d="M4572 7640 c0 -14 2 -19 5 -12 2 6 2 18 0 25 -3 6 -5 1 -5 -13z"/>
<path d="M4388 7602 c-3 -10 1 -30 8 -43 13 -23 14 -22 9 15 -4 45 -11 54 -17
28z"/>
<path d="M4563 7587 c-9 -19 -8 -24 3 -24 8 0 14 10 14 24 0 13 -2 23 -3 23
-2 0 -9 -10 -14 -23z"/>
<path d="M4811 7576 c-7 -8 -8 -17 -3 -19 4 -3 13 3 20 14 14 22 0 26 -17 5z"/>
<path d="M4402 7435 c0 -16 2 -22 5 -12 2 9 2 23 0 30 -3 6 -5 -1 -5 -18z"/>
<path d="M4343 7385 c0 -22 2 -30 4 -17 2 12 2 30 0 40 -3 9 -5 -1 -4 -23z"/>
<path d="M4391 7324 c0 -11 3 -14 6 -6 3 7 2 16 -1 19 -3 4 -6 -2 -5 -13z"/>
<path d="M4625 7270 c3 -5 8 -10 11 -10 2 0 4 5 4 10 0 6 -5 10 -11 10 -5 0
-7 -4 -4 -10z"/>
<path d="M4741 7253 c7 -12 15 -20 18 -17 3 2 -3 12 -13 22 -17 16 -18 16 -5
-5z"/>
<path d="M805 7138 c-18 -18 -31 -25 -33 -18 -3 7 2 16 9 21 7 4 10 11 5 16
-4 4 -12 -1 -18 -11 -8 -15 -12 -16 -19 -5 -7 11 -9 11 -9 -3 0 -9 5 -20 10
-23 13 -8 13 -25 -1 -25 -5 0 -7 5 -4 10 3 6 2 10 -4 10 -12 0 -22 -70 -19
-121 2 -22 7 -34 13 -31 6 3 4 -2 -4 -11 -11 -14 -13 -39 -7 -115 16 -233 112
-482 261 -676 16 -22 50 -14 41 9 -3 8 -2 15 2 15 14 0 36 142 33 204 -1 20
-1 20 -15 0 -14 -18 -15 -17 -14 14 1 20 6 32 15 32 7 0 13 7 13 15 0 8 -4 15
-10 15 -5 0 -10 8 -10 18 -1 13 -6 10 -26 -13 -15 -16 -23 -25 -20 -19 3 7 8
28 10 48 3 20 9 43 14 51 4 9 6 31 4 50 l-4 35 -24 -27 c-13 -16 -24 -31 -24
-35 0 -5 -4 -8 -9 -8 -5 0 -3 17 4 37 15 44 8 64 -13 37 -17 -22 -14 -14 13
39 16 31 17 39 5 50 -10 9 -11 9 -6 -1 4 -7 1 -15 -8 -18 -8 -3 -18 -14 -21
-25 -4 -10 -11 -19 -17 -19 -6 0 -17 -8 -25 -17 -12 -16 -13 -15 -7 12 4 17
12 39 18 50 11 21 12 25 20 93 2 23 8 52 11 65 5 17 -1 14 -28 -16 -28 -30
-36 -35 -41 -22 -3 9 -2 13 4 10 6 -3 10 0 10 7 0 7 3 24 6 38 6 25 6 24 -20
-5 l-27 -30 26 52 c14 29 25 55 25 58 0 8 -55 -57 -68 -80 -10 -19 -11 -19
-20 5 -5 14 -6 26 -1 28 5 2 9 10 9 18 0 8 4 14 9 14 5 0 14 14 20 31 10 29 9
30 -7 18 -9 -8 -20 -18 -24 -24 -15 -21 -8 16 8 41 27 41 7 40 -30 -2 -40 -45
-55 -41 -29 8 12 22 24 33 33 30 8 -3 12 -1 7 3 -4 5 1 18 10 29 18 20 18 20
-9 3 -16 -10 -28 -13 -28 -8 0 5 3 11 8 13 10 4 65 79 61 82 -2 2 -17 -10 -34
-26z m215 -572 c0 -2 -7 -7 -16 -10 -8 -3 -12 -2 -9 4 6 10 25 14 25 6z m-17
-176 c-10 -11 -22 -20 -27 -20 -5 0 -1 9 9 20 10 11 22 20 26 20 5 0 1 -9 -8
-20z m38 -88 c-5 -10 -18 -25 -28 -33 -12 -10 -11 -5 6 19 24 35 38 43 22 14z"/>
<path d="M620 7061 c0 -6 4 -13 10 -16 6 -3 7 1 4 9 -7 18 -14 21 -14 7z"/>
<path d="M550 6955 c0 -11 60 -65 89 -79 47 -25 38 -12 -29 38 -33 25 -60 44
-60 41z"/>
<path d="M491 6804 c13 -14 58 -48 99 -76 40 -27 82 -58 91 -69 23 -26 29 -24
29 11 0 18 -6 33 -15 36 -8 4 -15 14 -15 23 0 14 -2 14 -10 1 -5 -8 -10 -10
-10 -4 0 7 -19 19 -42 29 -24 9 -62 30 -86 46 -53 36 -73 38 -41 3z"/>
<path d="M450 6664 c12 -14 122 -72 183 -98 9 -3 8 -7 -2 -14 -9 -7 -10 -12
-2 -16 21 -14 11 -28 -15 -22 -14 4 -44 9 -67 11 -59 7 -70 9 -84 18 -7 5 -13
4 -13 -1 0 -13 91 -49 158 -63 28 -6 50 -14 47 -18 -2 -5 4 -17 15 -29 19 -20
19 -21 1 -27 -21 -6 -136 10 -176 25 -35 13 -40 13 -25 -5 14 -17 104 -52 174
-67 47 -10 49 -12 26 -20 -20 -7 -22 -11 -10 -18 38 -24 -74 -20 -131 4 -10 5
-19 2 -22 -7 -4 -12 14 -17 91 -27 84 -11 153 -29 115 -30 -7 0 -13 -12 -13
-26 0 -25 -2 -26 -40 -20 -34 5 -40 4 -40 -12 0 -25 76 -60 168 -78 75 -14
162 -19 162 -8 0 3 -13 24 -29 47 -45 66 -107 186 -136 262 -15 39 -34 89 -43
112 -9 23 -21 39 -26 36 -5 -4 -7 1 -3 9 4 12 1 14 -14 11 -10 -3 -26 0 -34 7
-8 6 -23 9 -35 5 -11 -3 -20 -2 -20 3 0 5 -17 13 -37 17 -21 4 -43 11 -49 16
-6 5 -28 16 -49 25 -37 15 -38 15 -25 -2z"/>
<path d="M4871 6584 c0 -11 3 -14 6 -6 3 7 2 16 -1 19 -3 4 -6 -2 -5 -13z"/>
<path d="M4859 6453 c-1 -16 -2 -40 -3 -55 -1 -16 2 -28 6 -28 4 0 8 25 8 55
0 56 -9 78 -11 28z"/>
<path d="M0 6229 c0 -62 9 -81 45 -93 27 -8 75 -54 75 -70 0 -14 -42 -26 -91
-26 -22 0 -29 -5 -29 -20 0 -18 7 -20 56 -20 41 0 60 5 69 17 12 16 40 9 30
-8 -4 -5 1 -9 9 -9 9 0 16 -6 16 -14 0 -9 16 -16 48 -20 26 -2 64 -8 85 -12
24 -4 37 -2 37 5 0 6 -7 11 -15 11 -9 0 -18 7 -21 15 -4 8 -12 15 -20 15 -7 0
-27 14 -44 30 -17 17 -35 30 -41 30 -6 0 -8 4 -5 9 3 5 -3 11 -15 14 -14 4
-19 12 -17 29 2 13 1 23 -2 23 -10 1 -50 40 -50 48 0 11 -101 107 -112 107 -4
0 -8 -27 -8 -61z"/>
<path d="M1280 6251 c0 -5 -17 -11 -37 -13 -28 -2 -41 -9 -48 -25 -5 -13 -17
-23 -25 -24 -8 -1 -22 -2 -30 -3 -8 -2 -28 -3 -45 -4 -19 -2 -25 -5 -18 -10 9
-5 1 -12 -22 -21 -44 -16 -45 -29 -2 -27 30 1 32 -1 32 -31 0 -17 4 -29 8 -26
4 3 16 -1 25 -8 14 -11 15 -11 5 0 -20 23 -5 40 31 34 26 -4 38 0 59 21 15 15
27 30 27 35 0 4 14 20 30 36 17 16 30 35 30 42 0 8 12 13 32 13 39 0 34 5 -14
14 -23 4 -38 3 -38 -3z m-95 -131 c3 -5 -3 -10 -15 -10 -12 0 -18 5 -15 10 3
6 10 10 15 10 5 0 12 -4 15 -10z"/>
<path d="M1330 6200 c0 -5 5 -10 10 -10 6 0 10 5 10 10 0 6 -4 10 -10 10 -5 0
-10 -4 -10 -10z"/>
<path d="M1281 6124 c0 -11 3 -14 6 -6 3 7 2 16 -1 19 -3 4 -6 -2 -5 -13z"/>
<path d="M1050 6105 c7 -9 15 -13 17 -11 7 7 -7 26 -19 26 -6 0 -6 -6 2 -15z"/>
<path d="M1147 6049 c7 -7 15 -10 18 -7 3 3 -2 9 -12 12 -14 6 -15 5 -6 -5z"/>
<path d="M4816 5873 c-3 -104 -9 -218 -12 -255 -4 -42 -3 -68 3 -68 10 0 30
497 20 506 -2 2 -7 -80 -11 -183z"/>
<path d="M934 6039 c-4 -7 39 -39 52 -39 3 0 1 7 -6 15 -9 10 -9 15 -1 15 6 0
11 4 11 10 0 11 -49 10 -56 -1z"/>
<path d="M1006 6014 c-6 -16 2 -18 22 -5 11 7 11 9 -1 14 -9 3 -18 -1 -21 -9z"/>
<path d="M1176 6005 c4 -8 8 -15 10 -15 2 0 4 7 4 15 0 8 -4 15 -10 15 -5 0
-7 -7 -4 -15z"/>
<path d="M910 5986 c0 -9 5 -16 10 -16 6 0 10 4 10 9 0 6 -4 13 -10 16 -5 3
-10 -1 -10 -9z"/>
<path d="M2121 5744 c0 -11 3 -14 6 -6 3 7 2 16 -1 19 -3 4 -6 -2 -5 -13z"/>
<path d="M612 5471 c-28 -24 -28 -31 1 -31 25 0 62 32 50 43 -11 12 -29 8 -51
-12z"/>
<path d="M535 5450 c-3 -5 -1 -10 4 -10 6 0 11 5 11 10 0 6 -2 10 -4 10 -3 0
-8 -4 -11 -10z"/>
<path d="M4664 5369 c-3 -6 -1 -16 5 -22 8 -8 11 -5 11 11 0 24 -5 28 -16 11z"/>
<path d="M928 5337 c-22 -34 -27 -53 -17 -68 7 -11 9 -10 9 5 0 11 5 16 14 13
15 -6 26 12 26 43 0 29 -16 32 -32 7z"/>
<path d="M880 5340 c0 -5 7 -10 15 -10 8 0 15 5 15 10 0 6 -7 10 -15 10 -8 0
-15 -4 -15 -10z"/>
<path d="M2190 5240 c0 -22 -4 -40 -10 -40 -5 0 -10 -11 -10 -25 0 -14 4 -25
9 -25 6 0 12 -24 14 -52 2 -29 4 0 5 65 1 64 0 117 -3 117 -3 0 -5 -18 -5 -40z"/>
<path d="M450 5260 c0 -5 5 -10 10 -10 6 0 10 5 10 10 0 6 -4 10 -10 10 -5 0
-10 -4 -10 -10z"/>
<path d="M1029 5268 c-9 -26 -4 -68 9 -73 19 -7 19 -7 24 35 2 27 -1 35 -14
38 -10 2 -18 2 -19 0z"/>
<path d="M4806 5254 c-4 -9 -4 -19 -1 -22 2 -3 7 3 11 12 4 9 4 19 1 22 -2 3
-7 -3 -11 -12z"/>
<path d="M86 5235 c-3 -8 -1 -15 4 -15 6 0 10 7 10 15 0 8 -2 15 -4 15 -2 0
-6 -7 -10 -15z"/>
<path d="M867 5207 c-3 -8 3 -14 14 -14 11 -1 19 5 19 13 0 18 -26 19 -33 1z"/>
<path d="M2288 5100 c2 -62 7 -110 13 -110 13 0 7 212 -6 217 -6 2 -9 -37 -7
-107z"/>
<path d="M240 5180 c0 -5 5 -10 10 -10 6 0 10 5 10 10 0 6 -4 10 -10 10 -5 0
-10 -4 -10 -10z"/>
<path d="M587 5170 c-3 -11 1 -27 10 -35 16 -16 38 -21 28 -6 -3 5 -1 12 5 16
5 3 10 15 10 26 0 27 -46 26 -53 -1z"/>
<path d="M960 5180 c0 -5 5 -10 11 -10 5 0 7 5 4 10 -3 6 -8 10 -11 10 -2 0
-4 -4 -4 -10z"/>
<path d="M4672 5173 c-6 -10 -11 -59 -13 -108 -3 -97 5 -108 44 -63 25 30 21
181 -5 186 -9 2 -21 -5 -26 -15z m38 -62 c0 -72 -6 -101 -21 -101 -5 0 -9 38
-9 85 0 69 3 85 15 85 12 0 15 -14 15 -69z"/>
<path d="M840 5151 c-30 -36 -36 -37 -43 -11 -3 11 -10 20 -16 20 -6 0 -11 -9
-11 -20 0 -22 -10 -26 -26 -10 -12 12 -83 -19 -84 -37 0 -6 -6 -14 -12 -16
-10 -4 -10 -6 0 -6 6 -1 12 -8 12 -17 0 -12 6 -15 24 -10 27 7 36 -7 36 -55 0
-37 20 -38 21 -1 0 24 1 25 9 7 7 -17 9 -17 9 -2 1 9 8 17 16 17 8 0 15 6 15
14 0 8 11 17 25 20 29 7 67 57 47 64 -15 5 -16 39 0 44 6 2 9 10 7 16 -3 8
-14 1 -29 -17z"/>
<path d="M2432 5053 l3 -117 38 -9 c52 -13 61 -1 65 83 7 110 -8 137 -81 154
l-28 7 3 -118z m62 51 c3 -9 6 -45 6 -80 0 -57 -2 -64 -20 -64 -18 0 -20 7
-20 80 0 62 3 80 14 80 8 0 17 -7 20 -16z"/>
<path d="M4446 5118 c-3 -13 -12 -52 -20 -88 -22 -95 -24 -125 -6 -125 8 0 17
11 20 25 7 28 50 42 50 16 0 -19 13 -27 28 -17 10 6 10 25 2 87 -17 123 -17
124 -45 124 -17 0 -26 -7 -29 -22z m34 -93 c0 -19 -4 -35 -10 -35 -11 0 -14
53 -3 63 11 12 13 8 13 -28z"/>
<path d="M511 5106 c-6 -14 -15 -26 -20 -26 -5 0 -12 -16 -16 -36 -3 -20 -9
-34 -12 -30 -5 4 -33 -17 -33 -26 0 -11 55 -6 80 7 16 8 41 15 55 15 22 0 25
3 19 24 -4 16 -1 25 10 29 27 11 18 27 -15 27 -28 0 -31 -2 -25 -25 5 -19 2
-25 -10 -25 -12 0 -15 9 -13 40 4 48 -7 62 -20 26z"/>
<path d="M2710 4996 c0 -95 3 -115 16 -120 29 -11 33 -6 36 47 l3 52 27 -57
c23 -49 31 -58 53 -58 l27 0 -31 54 -30 54 24 16 c27 18 33 53 15 86 -11 20
-66 40 -112 40 l-28 0 0 -114z m90 38 c0 -28 -3 -35 -17 -32 -12 2 -19 14 -21
36 -3 27 0 32 17 32 17 0 21 -6 21 -36z"/>
<path d="M4138 5093 c-10 -2 -18 -11 -18 -20 0 -12 7 -14 30 -9 39 7 39 -9 0
-105 -16 -41 -30 -80 -30 -86 0 -14 38 -17 89 -7 40 8 41 34 1 34 -16 0 -30 2
-30 4 0 2 16 46 35 97 19 52 35 95 35 97 0 4 -94 0 -112 -5z"/>
<path d="M4790 5081 c0 -12 5 -21 10 -21 6 0 10 6 10 14 0 8 -4 18 -10 21 -5
3 -10 -3 -10 -14z"/>
<path d="M400 5070 c0 -5 5 -10 10 -10 6 0 10 5 10 10 0 6 -4 10 -10 10 -5 0
-10 -4 -10 -10z"/>
<path d="M3088 5070 c-15 -9 -18 -27 -18 -115 0 -120 3 -125 89 -125 72 0 81
13 81 119 0 55 -5 94 -13 105 -15 21 -113 32 -139 16z m87 -120 c0 -78 -2 -85
-20 -85 -18 0 -20 8 -23 88 -3 87 -2 88 20 85 22 -3 23 -7 23 -88z"/>
<path d="M3868 5073 c-15 -4 -18 -18 -20 -94 -1 -49 -2 -101 -2 -116 -1 -22 4
-29 23 -31 13 -2 28 2 32 10 5 7 9 64 9 126 0 116 0 116 -42 105z"/>
<path d="M3480 4956 c0 -64 0 -119 0 -123 0 -5 33 -8 72 -8 61 0 73 3 76 18 3
14 -4 17 -42 17 l-45 0 -3 103 -3 102 -27 3 -28 3 0 -115z"/>
<path d="M378 5054 c-16 -15 -8 -44 12 -44 11 0 20 5 20 10 0 6 -4 10 -9 10
-5 0 -11 7 -13 16 -2 9 -6 12 -10 8z"/>
<path d="M2145 5039 c-4 -15 -5 -75 -4 -135 1 -60 2 -189 1 -286 -2 -191 -7
-208 -58 -208 -21 0 -24 -5 -24 -35 0 -31 3 -35 25 -35 16 0 25 6 25 15 0 8 7
15 15 15 14 0 16 -22 14 -160 -2 -181 -2 -180 83 -261 40 -39 158 -119 174
-119 3 0 42 -18 87 -39 45 -22 94 -43 109 -46 l27 -7 -6 115 c-6 115 -1 167
17 167 6 0 8 -54 6 -141 l-3 -141 26 -9 c65 -25 288 -63 474 -80 165 -15 631
-6 782 15 140 20 312 56 330 70 12 9 16 60 18 278 2 168 0 271 -6 277 -7 7 -6
15 2 25 6 8 14 44 16 80 3 54 0 68 -13 76 -16 9 -16 9 1 10 9 0 17 5 17 10 0
6 -7 10 -15 10 -21 0 -19 20 3 21 14 0 14 2 -3 8 -19 8 -19 8 3 20 17 9 21 18
16 35 -3 13 -1 27 5 30 14 9 15 -12 12 -249 -2 -141 0 -187 8 -179 7 7 13 70
16 170 6 188 14 274 26 274 5 0 9 -21 10 -47 1 -39 2 -43 9 -23 4 14 8 85 9
159 l1 134 -42 -7 c-371 -55 -712 -73 -1079 -57 -285 13 -463 30 -622 61 -248
48 -437 125 -473 192 l-12 23 -7 -26z m490 -818 c3 -83 0 -161 -5 -173 -6 -15
-9 38 -9 156 -1 99 1 177 5 174 3 -3 7 -74 9 -157z m162 82 c-3 -10 -5 -4 -5
12 0 17 2 24 5 18 2 -7 2 -21 0 -30z m1440 -155 c-3 -8 -6 -5 -6 6 -1 11 2 17
5 13 3 -3 4 -12 1 -19z m-177 -48 c0 -5 -2 -10 -4 -10 -3 0 -8 5 -11 10 -3 6
-1 10 4 10 6 0 11 -4 11 -10z m-1638 -195 c3 -14 1 -28 -3 -31 -5 -3 -9 9 -9
25 0 38 6 40 12 6z"/>
<path d="M4796 5011 c-34 -38 -161 -95 -281 -126 l-120 -31 -2 -69 c0 -39 -2
-121 -2 -182 -1 -93 -4 -113 -16 -113 -11 0 -15 -12 -15 -52 0 -29 5 -60 10
-68 8 -12 10 -10 10 10 0 15 3 21 10 14 5 -5 7 -27 3 -48 -5 -33 -8 -37 -18
-23 -10 14 -12 5 -12 -47 0 -42 4 -67 12 -70 7 -2 15 -16 17 -30 4 -19 0 -27
-15 -32 -16 -5 -18 -12 -14 -39 3 -18 3 -36 0 -39 -5 -4 -12 -306 -7 -306 9 0
120 43 148 57 l38 20 0 71 c0 39 -3 75 -7 81 -3 6 -4 15 -1 20 9 14 11 355 3
368 -4 6 -2 15 4 19 8 4 7 9 -2 15 -11 7 -11 11 -2 17 8 5 13 35 14 79 1 39 5
77 10 84 6 10 9 8 9 -8 0 -14 6 -23 15 -23 8 0 15 -5 15 -11 0 -5 -4 -7 -10
-4 -5 3 -10 -1 -10 -10 0 -9 5 -13 10 -10 6 4 10 -7 10 -24 0 -17 4 -31 10
-31 10 0 8 -65 -4 -91 -8 -19 -2 -487 7 -495 7 -7 71 29 105 60 13 12 35 39
48 61 22 38 24 56 34 280 6 132 12 346 15 475 2 130 7 243 11 253 8 23 -9 22
-30 -2z m-157 -416 c0 -5 -4 -3 -9 5 -5 8 -9 22 -9 30 0 16 17 -16 18 -35z"/>
<path d="M425 4940 c3 -5 8 -10 11 -10 2 0 4 5 4 10 0 6 -5 10 -11 10 -5 0 -7
-4 -4 -10z"/>
<path d="M350 4916 c0 -9 37 -12 55 -5 15 6 11 8 -17 8 -21 1 -38 -1 -38 -3z"/>
<path d="M1371 4884 c-12 -9 -31 -14 -42 -11 -10 3 -19 2 -19 -3 0 -10 26 -20
51 -20 11 0 22 -7 25 -15 10 -25 24 -17 24 13 0 43 -12 54 -39 36z"/>
<path d="M1181 4864 c0 -11 3 -14 6 -6 3 7 2 16 -1 19 -3 4 -6 -2 -5 -13z"/>
<path d="M960 4750 c0 -5 5 -10 10 -10 6 0 10 5 10 10 0 6 -4 10 -10 10 -5 0
-10 -4 -10 -10z"/>
<path d="M1920 4590 c0 -5 7 -10 16 -10 8 0 12 5 9 10 -3 6 -10 10 -16 10 -5
0 -9 -4 -9 -10z"/>
<path d="M1728 4570 c-1 -8 -2 -52 -2 -96 -1 -79 0 -81 22 -79 12 1 26 -4 31
-12 5 -10 16 -12 34 -8 30 8 35 22 12 31 -8 4 -15 12 -15 20 0 17 -41 19 -58
2 -9 -9 -12 -2 -11 33 0 24 3 39 5 33 3 -7 15 -10 27 -7 18 4 19 3 7 -6 -13
-9 -13 -11 2 -11 23 0 32 18 18 35 -12 15 3 31 19 20 5 -3 13 0 17 6 9 14 -14
29 -46 29 -20 0 -22 2 -10 10 12 8 11 10 -7 10 -13 0 -23 -6 -23 -12 0 -9 -4
-8 -10 2 -9 13 -10 13 -12 0z"/>
<path d="M1835 4570 c-3 -5 -2 -10 4 -10 5 0 12 -12 14 -27 3 -23 4 -22 3 4
-1 22 3 34 14 37 9 2 7 4 -7 5 -12 0 -25 -3 -28 -9z"/>
<path d="M1670 4550 c-8 -5 -27 -10 -42 -10 -22 0 -28 -5 -29 -22 0 -13 -3
-17 -6 -10 -2 6 -17 12 -31 11 -24 0 -25 -1 -7 -9 11 -5 16 -9 10 -10 -5 -1
-32 -4 -60 -6 -56 -6 -75 -18 -57 -36 15 -15 16 -48 2 -48 -5 0 -10 -16 -10
-35 0 -33 8 -43 24 -28 10 11 35 15 111 20 40 3 77 11 86 19 9 8 18 12 20 10
2 -2 5 34 7 80 2 46 2 84 0 84 -2 0 -10 -5 -18 -10z m10 -91 c0 -4 -18 -9 -40
-11 -26 -2 -40 1 -40 8 0 8 15 11 40 11 22 -1 40 -5 40 -8z"/>
<path d="M461 4534 c0 -11 3 -14 6 -6 3 7 2 16 -1 19 -3 4 -6 -2 -5 -13z"/>
<path d="M156 4465 c-3 -9 0 -15 9 -15 8 0 15 7 15 15 0 8 -4 15 -9 15 -5 0
-11 -7 -15 -15z"/>
<path d="M1269 4461 c-4 -12 -53 -28 -116 -38 -18 -3 -33 -8 -33 -12 0 -3 -41
-5 -92 -3 -80 3 -94 1 -106 -15 -11 -15 -26 -18 -107 -16 -52 1 -97 -3 -100
-8 -7 -11 -49 -12 -59 -2 -18 19 -74 4 -61 -17 2 -4 -23 -10 -57 -14 -45 -4
-67 -2 -83 8 -13 8 -26 11 -31 6 -5 -5 -42 -10 -82 -11 -55 -2 -76 1 -83 12
-6 9 -12 10 -17 4 -15 -20 -47 -32 -67 -24 -11 4 -55 8 -97 8 l-78 1 0 -84 c0
-58 4 -86 13 -89 9 -4 9 -6 0 -6 -17 -1 -17 -63 -1 -79 8 -8 67 -12 200 -12
131 0 188 -3 188 -11 0 -17 355 6 545 34 55 8 138 20 185 27 47 6 94 15 105
20 11 5 51 11 89 13 78 6 95 18 88 67 -4 27 -22 44 -22 21 0 -5 -66 -12 -147
-15 -82 -3 -173 -8 -204 -12 -31 -3 -72 -1 -90 4 -20 5 -44 6 -58 0 -13 -4
-33 -6 -43 -2 -19 6 -19 6 -1 26 22 24 74 53 90 50 17 -4 28 19 12 28 -14 9
43 23 77 20 35 -4 54 0 54 11 0 6 -9 13 -20 16 -11 3 -17 9 -14 14 7 12 44 11
44 -1 0 -5 7 -10 15 -10 8 0 15 -4 15 -10 0 -18 15 -11 25 12 11 24 37 38 33
17 -5 -20 25 -17 41 4 9 13 22 18 43 15 36 -6 43 4 25 38 -8 15 -16 22 -18 15z
m-102 -247 c-3 -3 -12 -4 -19 -1 -8 3 -5 6 6 6 11 1 17 -2 13 -5z"/>
<path d="M1390 4398 c0 -37 4 -58 9 -50 12 19 13 112 1 112 -6 0 -10 -27 -10
-62z"/>
<path d="M1372 4420 c0 -14 2 -19 5 -12 2 6 2 18 0 25 -3 6 -5 1 -5 -13z"/>
<path d="M1995 4393 c-74 -9 -75 -10 -75 -62 0 -46 1 -48 25 -43 14 2 25 8 25
12 0 4 16 11 35 14 33 7 35 9 35 46 0 22 -3 39 -7 39 -5 -1 -21 -4 -38 -6z"/>
<path d="M1720 4303 l0 -73 38 0 c20 0 46 7 56 15 11 8 30 15 43 15 25 0 37
28 31 75 -3 29 -35 44 -44 21 -7 -18 -77 -15 -91 3 -11 14 -12 14 -13 1 0 -13
-1 -13 -10 0 -7 10 -10 -7 -10 -57z"/>
<path d="M1653 4312 c-13 -2 -23 -7 -23 -12 0 -5 -17 -12 -37 -15 -21 -3 -46
-10 -55 -15 -9 -5 -35 -12 -57 -16 -34 -5 -40 -10 -45 -37 -3 -17 -3 -34 1
-38 5 -4 31 -3 58 2 67 13 102 19 153 25 l42 5 0 49 c0 53 -4 58 -37 52z"/>
<path d="M4305 4123 c-5 -23 -6 -187 -1 -346 1 -17 6 -27 14 -25 11 2 14 35
13 158 -2 145 -7 229 -15 237 -2 2 -7 -9 -11 -24z"/>
<path d="M0 4000 c0 -38 1 -40 33 -40 17 0 50 -3 72 -7 36 -6 38 -7 15 -14
-14 -4 -46 -7 -72 -8 l-48 -1 0 -485 c0 -267 3 -485 8 -485 4 0 32 14 62 31
102 57 364 167 505 212 174 57 370 106 634 161 l204 42 -1 65 c-2 35 2 71 8
79 10 15 15 -30 13 -107 -2 -38 -9 -37 122 -18 55 8 106 15 113 15 6 0 12 3
12 8 0 12 -184 1 -192 -11 -10 -17 -20 -3 -28 42 -7 40 -7 41 18 34 16 -4 23
-2 19 4 -4 6 4 14 18 17 14 4 25 11 25 16 0 6 7 10 15 10 8 0 15 6 15 13 0 8
16 22 36 33 34 18 36 18 48 2 25 -34 42 -19 38 32 0 8 -2 80 -3 158 -1 79 -5
138 -9 132 -5 -8 -10 -9 -14 -2 -7 12 -144 13 -152 1 -2 -5 -17 -4 -31 2 -15
5 -30 6 -35 1 -5 -5 -11 -61 -15 -126 -3 -64 -10 -119 -15 -122 -4 -3 -8 44
-8 105 0 60 -3 116 -6 125 -8 21 -128 22 -170 2 -16 -8 -65 -17 -109 -20 -44
-4 -85 -12 -91 -17 -8 -7 -14 -6 -19 1 -3 5 -23 10 -43 10 -27 0 -33 -3 -22
-10 8 -5 12 -12 8 -15 -3 -3 -12 0 -20 8 -17 17 -148 19 -142 2 5 -13 -124
-19 -140 -6 -15 12 -84 7 -99 -8 -16 -16 -27 -13 -27 7 0 15 -12 17 -119 17
-66 0 -117 3 -115 7 2 4 -16 10 -41 14 -94 14 -52 24 102 24 170 1 266 8 271
21 2 4 18 5 35 3 18 -3 66 2 107 9 l75 14 -75 6 c-41 4 -133 9 -205 11 -111 5
-312 20 -512 40 l-53 6 0 -40z m174 -65 c4 -11 -2 -15 -22 -14 -17 1 -20 3 -9
6 9 2 17 9 17 14 0 14 7 11 14 -6z m1387 -29 c32 5 39 4 39 -10 0 -12 -10 -16
-39 -16 -21 0 -53 -3 -70 -6 -25 -5 -30 -4 -26 8 7 18 49 39 53 27 2 -5 21 -6
43 -3z m-444 -32 c-3 -3 -12 -4 -19 -1 -8 3 -5 6 6 6 11 1 17 -2 13 -5z m-810
-30 c-3 -3 -12 -4 -19 -1 -8 3 -5 6 6 6 11 1 17 -2 13 -5z m1300 -30 c-3 -3
-12 -4 -19 -1 -8 3 -5 6 6 6 11 1 17 -2 13 -5z m-177 -197 c0 -24 -3 -28 -10
-17 -13 20 -13 63 0 55 6 -3 10 -21 10 -38z"/>
<path d="M1045 4000 c8 -13 115 -13 135 0 10 7 -9 10 -63 10 -50 0 -76 -4 -72
-10z"/>
<path d="M1785 4001 c3 -5 1 -12 -5 -16 -6 -4 -8 -10 -5 -15 3 -4 -2 -11 -11
-14 -12 -4 -14 -1 -9 13 5 16 2 18 -15 14 -19 -5 -20 -14 -22 -137 -4 -220 -3
-250 12 -283 11 -24 22 -33 40 -34 17 0 20 -3 10 -7 -8 -4 -16 -15 -18 -24 -2
-14 5 -17 38 -15 34 1 40 4 37 19 -3 10 2 22 11 28 14 8 11 10 -13 11 -30 1
-30 1 7 11 24 6 38 17 41 31 8 34 7 301 -1 312 -4 6 -15 11 -24 12 -10 0 -22
1 -27 2 -6 0 -5 14 1 34 12 32 12 32 19 7 7 -24 7 -24 8 -2 1 12 6 22 11 22 6
0 10 5 10 11 0 5 -4 7 -10 4 -5 -3 -10 -2 -10 3 0 6 -10 8 -22 5 -19 -4 -20
-3 -8 6 12 8 8 11 -18 11 -18 0 -31 -4 -27 -9z"/>
<path d="M1655 3960 l-30 -8 33 -1 c17 0 32 4 32 9 0 6 -1 9 -2 9 -2 -1 -16
-5 -33 -9z"/>
<path d="M2131 3958 c-1 -14 -39 -46 -48 -40 -18 12 -23 -12 -23 -108 l0 -110
29 0 c16 0 36 -3 45 -6 14 -5 16 9 15 117 0 68 -4 133 -9 144 -7 17 -9 17 -9
3z"/>
<path d="M1933 3922 c-6 -4 -13 -77 -17 -169 -6 -159 -6 -163 14 -163 11 0 19
3 18 8 -5 26 16 59 45 68 l32 9 7 115 c4 63 4 118 -1 123 -11 11 -85 17 -98 9z"/>
<path d="M705 3880 c3 -5 8 -10 11 -10 2 0 4 5 4 10 0 6 -5 10 -11 10 -5 0 -7
-4 -4 -10z"/>
<path d="M2140 3661 c0 -11 -7 -26 -15 -35 -8 -8 -15 -20 -15 -26 0 -6 -4 -8
-10 -5 -5 3 -10 2 -10 -4 0 -5 -6 -16 -14 -24 -8 -8 -18 -31 -21 -51 l-7 -36
45 0 c40 0 45 3 49 25 7 36 10 175 4 175 -4 0 -6 -9 -6 -19z"/>
<path d="M3235 3596 c-34 -25 2 -78 41 -61 17 7 17 8 -6 14 -33 9 -39 38 -8
43 19 3 20 4 6 10 -9 4 -24 1 -33 -6z"/>
<path d="M3676 3598 c-14 -44 -13 -60 0 -65 9 -3 20 -1 27 6 8 8 7 11 -6 11
-9 0 -17 5 -17 10 0 6 4 10 8 10 4 0 8 9 9 20 2 22 -15 28 -21 8z"/>
<path d="M3310 3585 c-18 -22 -1 -50 31 -50 20 0 24 5 24 30 0 23 -5 31 -21
33 -11 2 -27 -4 -34 -13z m45 -16 c0 -7 -8 -15 -17 -17 -18 -3 -25 18 -11 32
10 10 28 1 28 -15z"/>
<path d="M3391 3564 c1 -21 3 -31 6 -21 6 21 19 22 27 2 10 -26 26 -16 26 15
0 17 -4 30 -10 30 -5 0 -10 -5 -10 -12 0 -6 -9 -3 -20 7 -20 18 -20 17 -19
-21z"/>
<path d="M3468 3565 c2 -19 8 -35 12 -35 4 0 10 16 12 35 3 27 0 35 -12 35
-12 0 -15 -8 -12 -35z"/>
<path d="M3540 3565 c0 -30 3 -35 23 -35 21 1 22 1 3 15 -11 8 -15 15 -9 15 7
0 11 9 10 20 -2 36 -27 22 -27 -15z"/>
<path d="M3597 3594 c-11 -11 -8 -54 3 -54 6 0 10 6 10 13 1 7 6 5 14 -5 16
-22 26 -13 26 25 0 23 -3 27 -13 18 -9 -7 -17 -7 -23 -1 -6 6 -13 7 -17 4z"/>
<path d="M2460 3580 c0 -5 -11 -12 -25 -16 -24 -6 -25 -9 -25 -89 0 -294 62
-534 170 -655 53 -60 63 -48 63 74 0 74 -3 98 -16 111 -12 11 -17 34 -17 72 0
46 3 56 20 60 23 6 27 43 5 43 -12 0 -15 15 -15 73 0 71 11 110 24 89 4 -6 14
-8 22 -5 14 5 15 -8 14 -103 -1 -60 4 -133 10 -161 9 -42 8 -58 -3 -80 -13
-24 -13 -31 4 -62 18 -35 17 -81 -2 -81 -5 0 -9 -9 -9 -21 0 -17 4 -19 23 -13
57 17 126 83 162 155 39 75 55 157 62 299 l5 135 -147 69 c-81 39 -150 77
-153 85 -3 9 -10 19 -16 23 -16 11 -156 10 -156 -2z m69 -80 c6 0 11 -4 11
-10 0 -5 7 -7 15 -4 12 5 15 -2 15 -30 0 -40 1 -40 -35 -26 -21 8 -25 14 -20
32 6 17 4 20 -9 15 -13 -5 -16 0 -16 26 1 29 2 30 14 15 7 -10 18 -18 25 -18z
m101 -31 c0 -5 4 -9 9 -9 5 0 22 -5 38 -12 15 -6 34 -10 41 -9 6 1 12 -3 12
-9 0 -5 -4 -10 -10 -10 -6 0 -6 -9 0 -26 13 -33 13 -34 -5 -28 -8 4 -16 18
-16 33 -2 24 -2 24 -6 3 -6 -32 -56 -28 -61 6 -4 24 -17 29 -25 10 -3 -7 -6 6
-6 29 -1 34 2 41 14 37 8 -4 15 -10 15 -15z m130 -74 c0 -19 -4 -35 -10 -35
-5 0 -9 16 -8 35 1 19 5 35 10 35 4 0 8 -16 8 -35z m30 -5 l2 35 8 -30 c6 -26
8 -27 9 -7 2 35 25 21 29 -17 3 -28 1 -31 -14 -23 -9 5 -25 7 -35 5 -16 -5
-19 0 -18 33 l2 39 7 -35 7 -35 3 35z m-221 -19 c12 -8 12 -18 1 -71 -10 -46
-10 -64 -1 -73 17 -17 13 -26 -9 -20 -23 6 -25 26 -9 92 7 30 7 47 -1 55 -22
22 -8 34 19 17z m41 -97 c0 -54 -4 -83 -10 -79 -11 7 -14 148 -3 158 12 13 13
7 13 -79z m141 19 c5 -14 4 -25 -2 -29 -6 -3 -13 3 -16 15 -3 11 -9 18 -14 15
-12 -7 -11 -111 1 -119 6 -3 10 1 10 9 0 9 5 16 10 16 6 0 10 -11 10 -25 0
-27 -26 -35 -48 -13 -13 13 -17 114 -6 143 9 23 45 15 55 -12z m-151 -172 c0
-14 -2 -14 -10 -1 -8 13 -10 13 -10 -2 0 -9 5 -20 10 -23 16 -10 12 -75 -4
-75 -8 0 -17 7 -20 16 -8 21 -8 109 1 117 9 10 33 -13 33 -32z m115 -51 c-4
-12 -9 -19 -12 -17 -3 3 -2 15 2 27 4 12 9 19 12 17 3 -3 2 -15 -2 -27z m25
-61 c0 -31 -19 -37 -28 -9 -3 7 0 10 7 6 6 -4 11 -3 11 3 0 5 -5 13 -10 16 -6
4 -8 11 -4 16 10 17 24 -2 24 -32z m-150 -59 c0 -28 17 -33 25 -7 3 12 9 17
11 11 3 -7 -1 -27 -9 -45 l-15 -34 -9 25 c-18 46 -24 82 -13 75 5 -3 10 -15
10 -25z"/>
<path d="M2581 3064 c0 -11 3 -14 6 -6 3 7 2 16 -1 19 -3 4 -6 -2 -5 -13z"/>
<path d="M3512 3560 c0 -19 2 -27 5 -17 2 9 2 25 0 35 -3 9 -5 1 -5 -18z"/>
<path d="M4300 3495 l0 -95 33 4 c17 2 40 7 50 11 15 6 17 1 17 -49 0 -52 -11
-73 -23 -43 -3 7 -6 4 -6 -6 -1 -10 -5 -16 -9 -13 -9 5 -62 -40 -62 -53 0 -14
39 -20 47 -8 5 7 11 -13 14 -43 l6 -55 1 53 c3 69 22 68 22 -2 0 -52 -17 -85
-38 -72 -5 3 -16 -2 -25 -12 -13 -14 -16 -43 -16 -149 -1 -73 -1 -136 -2 -140
-4 -26 5 -22 41 18 132 144 188 324 193 620 l2 114 -65 -2 c-36 -2 -86 -5
-112 -8 -39 -5 -48 -3 -48 10 0 8 -4 15 -10 15 -6 0 -10 -38 -10 -95z m204
-217 c11 -41 7 -78 -8 -78 -8 0 -16 -4 -18 -10 -1 -5 -20 -16 -40 -25 l-38
-15 0 55 c0 30 5 55 10 55 6 0 10 -9 10 -20 0 -11 5 -20 10 -20 6 0 10 11 10
24 0 42 20 41 21 -1 l2 -38 10 48 c11 51 21 59 31 25z"/>
<path d="M4180 3518 c-41 -23 -69 -43 -61 -46 8 -3 -4 -15 -31 -32 -55 -35
-58 -46 -47 -193 9 -133 28 -226 57 -286 12 -24 19 -47 16 -52 -14 -23 72
-102 121 -111 15 -3 17 8 15 120 0 68 -5 135 -10 148 -9 23 -11 24 -33 9 -13
-8 -27 -12 -30 -8 -11 10 -8 123 3 123 6 0 11 -24 12 -52 l1 -53 6 55 c4 33
11 55 18 55 27 0 36 26 38 112 1 48 4 125 6 171 2 45 2 82 -1 82 -3 0 -39 -19
-80 -42z m-20 -359 c0 -17 -3 -19 -14 -10 -11 10 -15 4 -18 -31 -5 -48 -1 -60
12 -38 11 19 22 8 14 -14 -3 -9 -15 -16 -25 -16 -16 0 -19 8 -19 58 0 64 4 72
32 72 12 0 18 -7 18 -21z"/>
<path d="M2020 3524 c-3 -7 -23 -21 -45 -33 l-40 -21 43 0 c44 0 57 12 50 47
-2 10 -6 13 -8 7z"/>
<path d="M4795 3502 c-3 -3 -5 -16 -5 -29 0 -20 5 -23 39 -23 35 0 38 2 34 24
-4 17 -13 25 -34 28 -16 3 -31 2 -34 0z"/>
<path d="M4898 3478 c-10 -28 4 -38 53 -38 37 0 49 4 49 15 0 13 -22 19 -67
18 -7 -1 -13 3 -13 8 0 14 -17 11 -22 -3z"/>
<path d="M1720 3465 c0 -16 23 -18 54 -6 18 7 18 8 -5 14 -37 10 -49 8 -49 -8z"/>
<path d="M3368 3455 c-138 -30 -148 -34 -148 -50 0 -8 -15 -18 -32 -23 l-33
-8 -3 -78 c-4 -100 21 -266 52 -356 14 -39 21 -68 15 -65 -33 21 32 -85 82
-132 69 -64 189 -124 189 -93 0 5 21 21 48 35 71 37 127 84 173 145 61 81 89
149 110 269 19 112 25 276 10 285 -5 3 -71 17 -147 31 -180 33 -184 35 -184
51 0 17 -2 17 -132 -11z m-58 -116 c0 -6 8 -8 20 -4 15 5 21 0 29 -27 l9 -33
1 33 c1 21 6 32 16 32 11 0 15 -11 15 -42 0 -32 -3 -39 -10 -28 -5 8 -10 11
-10 5 0 -5 -14 -11 -30 -12 -27 -2 -30 1 -30 27 0 22 -4 28 -15 24 -8 -4 -15
-15 -15 -25 0 -10 -4 -19 -10 -19 -11 0 -14 63 -3 73 10 11 33 8 33 -4z m167
-5 c4 -12 8 -13 14 -3 6 10 11 10 21 1 11 -9 17 -9 26 0 9 9 15 9 24 0 8 -8
15 -9 25 0 7 6 17 7 21 3 4 -4 1 -10 -5 -12 -7 -3 -13 -16 -13 -29 0 -14 4
-22 10 -19 6 3 10 1 10 -4 0 -6 -7 -11 -15 -11 -9 0 -15 9 -15 25 0 14 -4 25
-10 25 -5 0 -10 -9 -10 -20 0 -27 -28 -25 -33 3 -4 19 -4 18 -6 -5 0 -18 -7
-28 -16 -28 -14 0 -19 11 -16 38 4 27 -34 7 -42 -23 -2 -11 -5 1 -6 28 -1 36
3 47 14 47 9 0 18 -7 22 -16z m163 -29 c0 -19 -4 -35 -8 -35 -4 0 -6 16 -4 35
2 19 6 35 8 35 2 0 4 -16 4 -35z m50 0 c0 -28 -4 -35 -20 -35 -16 0 -20 7 -20
35 0 28 4 35 20 35 16 0 20 -7 20 -35z m30 23 c0 -9 4 -8 10 2 7 11 10 5 10
-22 0 -21 -4 -38 -10 -38 -5 0 -10 6 -10 13 0 8 -4 7 -10 -3 -7 -11 -10 -5
-10 23 0 20 5 37 10 37 6 0 10 -6 10 -12z m-373 -130 c8 -11 10 -65 4 -110 -1
-5 -12 -8 -26 -8 -24 0 -25 3 -25 58 0 32 3 62 7 65 10 11 30 8 40 -5z m101 3
c9 -5 12 -26 10 -67 -3 -55 -4 -59 -28 -59 -23 0 -25 4 -28 47 -3 45 10 88 26
88 4 0 13 -4 20 -9z m63 -56 c-1 -33 -7 -64 -12 -69 -5 -6 -9 -8 -9 -5 -1 2
-2 34 -3 72 -2 54 1 67 12 65 11 -2 14 -17 12 -63z m109 0 c0 -37 -4 -65 -10
-65 -5 0 -11 8 -11 18 -1 16 -2 16 -6 0 -10 -39 -23 -15 -23 42 0 63 5 71 26
43 12 -17 13 -16 14 5 0 12 2 22 5 22 3 0 5 -29 5 -65z m63 58 c3 -5 8 -34 12
-65 5 -40 4 -58 -4 -58 -6 0 -11 7 -11 15 0 8 -4 15 -10 15 -5 0 -10 -7 -10
-15 0 -8 -4 -15 -10 -15 -13 0 -13 17 1 80 10 46 21 61 32 43z m-293 -63 c0
-33 -4 -60 -10 -60 -6 0 -10 27 -10 60 0 33 4 60 10 60 6 0 10 -27 10 -60z
m166 29 c-3 -17 -6 -48 -6 -67 0 -20 -4 -32 -8 -26 -12 13 -2 124 10 124 6 0
8 -12 4 -31z m-116 -224 c0 -63 -1 -65 -25 -65 -19 0 -25 5 -25 23 1 22 1 22
16 2 14 -19 15 -18 13 15 -1 19 2 43 6 53 8 20 -5 23 -23 5 -9 -9 -12 -9 -12
3 0 21 9 29 32 29 16 0 18 -9 18 -65z m70 0 c0 -63 -1 -65 -25 -65 -24 0 -25
3 -25 58 0 64 4 72 32 72 16 0 18 -9 18 -65z m48 33 c-4 -41 -28 -50 -28 -10
0 16 3 32 7 35 15 16 24 5 21 -25z m68 -73 c-9 -34 -30 -27 -33 11 -2 28 -2
28 7 4 8 -25 8 -25 9 5 1 21 4 26 12 18 7 -7 9 -23 5 -38z m-66 -12 c-11 -17
-11 -17 -6 0 3 10 6 24 7 30 0 9 2 9 5 0 3 -7 0 -20 -6 -30z m-126 -95 l14
-33 12 33 c7 17 16 32 22 32 6 0 7 -8 3 -17 -4 -10 -12 -30 -17 -45 -14 -39
-33 -35 -46 11 -13 43 -14 51 -7 51 3 0 11 -15 19 -32z m146 11 c16 -28 -11
-69 -45 -69 -23 0 -25 4 -25 45 0 43 1 45 30 45 19 0 33 -7 40 -21z"/>
<path d="M3331 3300 c0 -33 1 -34 10 -11 6 16 6 28 -1 35 -7 7 -10 -1 -9 -24z"/>
<path d="M3450 3324 c0 -8 5 -12 10 -9 6 4 8 11 5 16 -9 14 -15 11 -15 -7z"/>
<path d="M3502 3300 c0 -19 2 -27 5 -17 2 9 2 25 0 35 -3 9 -5 1 -5 -18z"/>
<path d="M3660 3305 c0 -14 5 -25 10 -25 6 0 10 11 10 25 0 14 -4 25 -10 25
-5 0 -10 -11 -10 -25z"/>
<path d="M3320 3169 c0 -11 5 -17 10 -14 6 3 10 13 10 21 0 8 -4 14 -10 14 -5
0 -10 -9 -10 -21z"/>
<path d="M3320 3109 c0 -11 5 -17 10 -14 6 3 10 13 10 21 0 8 -4 14 -10 14 -5
0 -10 -9 -10 -21z"/>
<path d="M3427 3183 c-11 -10 -8 -93 3 -93 6 0 10 23 10 50 0 51 -1 55 -13 43z"/>
<path d="M3665 3140 c-3 -5 -1 -10 4 -10 6 0 11 5 11 10 0 6 -2 10 -4 10 -3 0
-8 -4 -11 -10z"/>
<path d="M3480 2939 c0 -27 4 -48 8 -45 12 7 14 96 2 96 -5 0 -10 -23 -10 -51z"/>
<path d="M3542 2975 c0 -16 2 -22 5 -12 2 9 2 23 0 30 -3 6 -5 -1 -5 -18z"/>
<path d="M3530 2785 c0 -37 10 -44 30 -20 14 17 4 55 -16 55 -9 0 -14 -11 -14
-35z"/>
<path d="M5035 3450 c-10 -17 -7 -18 73 -23 53 -4 72 -2 72 7 0 7 -17 13 -42
14 -24 1 -55 5 -70 8 -14 3 -29 0 -33 -6z"/>
<path d="M5426 3443 c-10 -11 -7 -21 10 -27 8 -3 13 -2 9 3 -3 5 0 11 7 13 8
3 6 6 -4 10 -9 4 -19 4 -22 1z"/>
<path d="M5354 3422 c2 -4 -12 -7 -32 -5 -29 2 -33 1 -17 -6 11 -5 43 -9 70
-9 31 1 39 3 21 5 -22 4 -26 7 -15 14 11 7 9 9 -9 9 -13 0 -21 -4 -18 -8z"/>
<path d="M4352 3370 c0 -14 2 -19 5 -12 2 6 2 18 0 25 -3 6 -5 1 -5 -13z"/>
<path d="M6255 3380 c-4 -6 5 -10 19 -10 14 0 26 5 26 10 0 6 -9 10 -19 10
-11 0 -23 -4 -26 -10z"/>
<path d="M4323 3345 c0 -22 2 -30 4 -17 2 12 2 30 0 40 -3 9 -5 -1 -4 -23z"/>
<path d="M4752 3358 c-18 -23 -42 -90 -41 -117 0 -16 8 -2 19 38 11 36 25 68
32 72 7 4 10 11 7 14 -4 3 -11 0 -17 -7z"/>
<path d="M6195 3353 c-9 -9 -30 -16 -46 -16 -16 0 -29 -6 -29 -13 0 -7 -8 -10
-19 -7 -10 3 -21 1 -24 -4 -4 -6 -1 -10 6 -10 7 0 38 -4 70 -8 48 -6 57 -5 57
8 0 8 -6 18 -12 20 -10 4 -10 6 0 6 6 1 12 7 12 15 0 10 9 13 33 10 25 -3 28
-2 12 5 -30 14 -42 13 -60 -6z"/>
<path d="M2150 3345 c-17 -20 -27 -327 -12 -358 6 -12 13 -59 16 -104 7 -115
23 -170 55 -192 35 -25 81 -6 81 33 0 9 5 16 11 16 6 0 9 9 6 20 -3 11 -1 22
4 25 15 10 -7 234 -36 355 -16 67 -38 121 -74 177 -29 47 -33 49 -51 28z m56
-141 c3 -36 -10 -39 -19 -4 -3 12 -1 18 5 14 6 -4 8 2 3 17 -4 13 -4 21 1 16
4 -4 9 -23 10 -43z m2 -215 c-3 -8 -7 -3 -11 10 -4 17 -3 21 5 13 5 -5 8 -16
6 -23z m0 -145 c0 -19 -4 -34 -8 -34 -9 0 -18 61 -12 80 7 21 20 -9 20 -46z"/>
<path d="M6478 3253 c7 -3 16 -2 19 1 4 3 -2 6 -13 5 -11 0 -14 -3 -6 -6z"/>
<path d="M6518 3243 c7 -3 16 -2 19 1 4 3 -2 6 -13 5 -11 0 -14 -3 -6 -6z"/>
<path d="M4311 3161 c1 -20 3 -28 6 -18 2 9 9 15 14 12 5 -4 9 5 9 18 0 14 -6
24 -15 24 -11 0 -15 -10 -14 -36z"/>
<path d="M4686 3127 c-9 -39 0 -120 16 -150 7 -15 12 -16 24 -6 12 10 12 13
-3 25 -14 10 -16 15 -5 25 6 7 12 20 12 29 0 13 -2 13 -10 0 -8 -13 -10 -13
-14 0 -3 8 -7 38 -8 65 l-3 50 -9 -38z"/>
<path d="M4741 3094 c0 -11 3 -14 6 -6 3 7 2 16 -1 19 -3 4 -6 -2 -5 -13z"/>
<path d="M2876 2943 c-6 -14 -5 -15 5 -6 7 7 10 15 7 18 -3 3 -9 -2 -12 -12z"/>
<path d="M4700 2925 c7 -9 15 -13 17 -11 7 7 -7 26 -19 26 -6 0 -6 -6 2 -15z"/>
<path d="M2670 2901 c0 -6 5 -13 10 -16 6 -3 10 1 10 9 0 9 -4 16 -10 16 -5 0
-10 -4 -10 -9z"/>
<path d="M5070 2716 c-30 -8 -71 -21 -91 -29 -49 -22 -61 -66 -16 -58 5 1 6
-3 3 -7 -3 -5 -17 -7 -31 -4 -14 2 -25 0 -25 -7 0 -7 -7 -7 -25 1 -18 8 -31 8
-47 0 -21 -11 -21 -11 7 -6 25 4 27 3 12 -6 -10 -6 -32 -9 -50 -6 -24 5 -27 4
-12 -3 l20 -10 -20 -1 c-11 -1 13 -10 54 -20 40 -10 76 -22 80 -26 6 -6 -29 0
-73 13 -13 4 -16 2 -11 -8 6 -9 3 -10 -11 -4 -10 4 -28 6 -39 5 -11 -2 -39 -3
-62 -4 -23 0 -37 -3 -31 -7 7 -4 5 -8 -3 -12 -10 -4 -9 -6 3 -6 29 -2 88 -34
81 -44 -4 -6 0 -8 10 -4 9 3 19 3 21 -2 3 -4 -36 -8 -86 -9 -55 0 -93 -5 -98
-12 -4 -6 -15 -8 -26 -3 -17 6 -17 5 -5 -10 7 -10 19 -17 25 -16 6 1 27 -6 46
-15 l35 -17 -32 5 c-18 3 -48 3 -65 -1 l-33 -7 30 -12 c28 -12 26 -12 -24 -7
-40 5 -52 3 -47 -5 4 -7 18 -12 32 -12 14 0 23 -4 20 -9 -3 -5 10 -12 29 -15
19 -4 35 -12 35 -17 0 -6 -12 -8 -27 -5 -16 3 -55 8 -88 11 -59 5 -60 5 -30
-10 l30 -16 -48 5 c-56 7 -55 -5 3 -24 22 -7 51 -23 64 -35 12 -11 29 -19 37
-17 48 13 219 86 219 93 0 5 6 9 14 9 30 0 213 135 291 215 80 81 153 180 142
191 -12 13 -135 13 -187 0z m61 -23 c13 -15 12 -15 -11 -3 -34 17 -36 20 -18
20 9 0 22 -7 29 -17z m-94 -16 c0 -9 -9 -12 -25 -9 -17 3 -20 7 -10 13 19 13
35 11 35 -4z m-7 -42 c14 -8 21 -14 15 -14 -5 0 -21 6 -35 14 -14 8 -20 14
-15 14 6 0 21 -6 35 -14z m-223 -111 c-3 -3 -12 -4 -19 -1 -8 3 -5 6 6 6 11 1
17 -2 13 -5z m-102 -94 c25 -11 -1 -11 -35 0 -20 6 -21 8 -5 8 11 0 29 -3 40
-8z"/>
<path d="M2120 2692 c0 -37 33 -128 62 -175 17 -26 58 -72 91 -102 56 -51 88
-70 71 -43 -9 14 5 6 76 -46 30 -22 66 -52 80 -67 38 -41 163 -104 285 -144
426 -140 939 -161 1308 -54 l69 20 -26 24 -26 24 -60 -25 c-62 -25 -95 -31
-85 -15 3 5 -9 11 -27 13 -33 3 -33 3 16 20 32 12 62 16 87 12 25 -4 39 -3 39
4 0 7 -7 9 -17 5 -11 -4 -14 -3 -9 5 10 17 -12 15 -154 -12 -193 -38 -343 -50
-530 -43 -91 4 -199 13 -240 22 -167 33 -187 37 -225 50 -22 8 -78 24 -125 36
-75 19 -227 86 -345 152 -140 77 -256 203 -294 320 -14 40 -21 47 -21 19z
m780 -547 c23 -13 23 -14 4 -15 -11 0 -29 7 -40 15 -26 19 1 20 36 0z m578
-81 c23 -6 25 -31 3 -26 -7 1 -21 -2 -31 -8 -21 -11 -108 -4 -131 11 -12 8
-12 11 1 19 17 11 122 13 158 4z"/>
<path d="M5257 2623 c-47 -64 -176 -187 -259 -247 -47 -34 -68 -56 -68 -70 0
-12 -1 -81 -3 -155 -3 -123 -2 -131 10 -95 8 21 17 74 20 117 5 69 8 77 24 72
11 -4 19 -2 19 4 0 6 4 11 8 11 11 0 42 -158 38 -194 -2 -18 0 -24 6 -18 6 6
9 60 7 130 -3 95 -1 118 9 110 9 -8 12 -5 12 10 0 14 6 19 18 18 20 -3 39 -73
42 -156 3 -97 18 -25 20 90 1 95 2 103 15 86 8 -11 15 -14 15 -8 0 7 6 12 14
12 14 0 26 -48 26 -106 0 -19 6 -34 15 -37 16 -7 16 -6 -10 128 -14 69 -12 92
5 65 7 -10 10 -11 10 -2 0 6 9 12 20 12 13 0 22 -9 26 -27 3 -16 7 -32 8 -37
1 -5 10 -1 19 8 31 32 15 282 -21 318 -6 6 -22 -7 -45 -39z"/>
<path d="M3042 2578 c-17 -17 -15 -44 4 -62 17 -18 44 -21 44 -6 0 6 -6 10
-14 10 -7 0 -19 6 -25 14 -15 18 10 39 35 29 17 -6 17 -5 5 10 -16 20 -32 22
-49 5z"/>
<path d="M3821 2538 c0 -28 2 -30 9 -13 12 28 12 45 0 45 -5 0 -10 -15 -9 -32z"/>
<path d="M3860 2550 c-15 -28 0 -45 30 -35 14 5 20 13 18 28 -4 29 -34 33 -48
7z m26 -27 c-11 -11 -19 6 -11 24 8 17 8 17 12 0 3 -10 2 -21 -1 -24z"/>
<path d="M3260 2519 c0 -24 4 -38 10 -34 6 3 10 22 10 41 0 19 -4 34 -10 34
-5 0 -10 -18 -10 -41z"/>
<path d="M3447 2553 c-11 -10 -8 -73 3 -73 6 0 10 18 10 40 0 41 -2 45 -13 33z"/>
<path d="M3660 2525 c0 -19 5 -35 10 -35 6 0 10 7 10 17 0 15 1 15 18 0 10
-10 22 -14 25 -10 11 10 8 63 -3 63 -5 0 -10 -7 -10 -17 0 -15 -1 -15 -18 0
-27 24 -32 21 -32 -18z"/>
<path d="M3122 2528 c2 -15 11 -24 26 -26 20 -3 23 0 20 20 -2 15 -11 24 -26
26 -20 3 -23 0 -20 -20z m38 -3 c0 -8 -7 -15 -15 -15 -16 0 -20 12 -8 23 11
12 23 8 23 -8z"/>
<path d="M3503 2538 c-33 -16 -31 -58 2 -58 18 0 25 5 25 19 0 11 3 26 6 35 7
18 -2 19 -33 4z m15 -36 c2 -7 -3 -12 -12 -12 -9 0 -16 7 -16 16 0 17 22 14
28 -4z"/>
<path d="M3758 2544 c-17 -17 -8 -44 15 -44 13 0 17 3 11 8 -7 4 -13 15 -15
25 -2 11 -7 15 -11 11z"/>
<path d="M3780 2541 c0 -6 5 -13 10 -16 6 -3 10 1 10 9 0 9 -4 16 -10 16 -5 0
-10 -4 -10 -9z"/>
<path d="M3190 2515 c0 -14 5 -25 10 -25 6 0 10 10 10 22 0 25 15 14 23 -17 3
-13 5 -9 6 13 1 28 -2 32 -24 32 -20 0 -25 -5 -25 -25z"/>
<path d="M3312 2531 c-20 -12 -10 -45 13 -48 11 -2 14 0 8 3 -7 3 -13 13 -13
22 0 14 2 15 10 2 11 -18 25 -7 17 15 -7 17 -16 19 -35 6z"/>
<path d="M3562 2531 c-21 -13 -10 -46 16 -49 27 -4 40 22 22 43 -14 17 -20 18
-38 6z m28 -26 c0 -8 -4 -15 -9 -15 -13 0 -22 16 -14 24 11 11 23 6 23 -9z"/>
<path d="M3370 2506 c0 -32 17 -34 23 -3 l4 22 8 -22 c4 -13 12 -23 17 -23 5
0 8 10 6 23 -2 16 -11 23 -30 25 -24 3 -28 0 -28 -22z"/>
<path d="M3062 2443 c2 -12 18 -20 48 -26 25 -5 46 -10 48 -12 2 -2 -48 -95
-78 -142 -11 -18 -12 -24 -1 -37 8 -9 17 -16 21 -16 12 0 120 197 120 219 0
14 -10 20 -46 25 -84 11 -116 8 -112 -11z"/>
<path d="M3280 2415 c-19 -21 -24 -36 -24 -88 -1 -74 16 -120 50 -136 37 -17
60 -14 90 12 23 20 28 34 32 85 5 73 -2 106 -28 132 -30 30 -90 27 -120 -5z
m88 -27 c18 -18 15 -123 -4 -142 -29 -30 -50 -12 -57 49 -8 81 24 130 61 93z"/>
<path d="M3509 2427 c-28 -21 -39 -54 -39 -117 0 -64 18 -113 45 -124 35 -13
67 -5 97 24 29 30 30 33 26 111 -3 70 -6 83 -27 100 -26 21 -78 25 -102 6z
m75 -43 c11 -30 6 -120 -8 -140 -35 -47 -77 38 -56 115 9 33 15 41 34 41 13 0
27 -7 30 -16z"/>
<path d="M3846 2403 c-3 -3 -24 -6 -47 -5 -52 2 -93 -19 -109 -57 -32 -78 42
-158 112 -120 28 15 35 3 12 -22 -16 -18 -26 -20 -66 -15 -25 4 -49 2 -52 -3
-11 -17 27 -36 71 -35 34 1 51 7 73 29 29 28 30 31 30 126 0 90 -7 119 -24
102z m-28 -88 c5 -56 -37 -85 -72 -49 -35 34 -5 98 43 92 22 -3 26 -9 29 -43z"/>
<path d="M4844 2276 c-35 -15 -44 -43 -60 -171 -4 -33 -13 -74 -21 -92 -7 -18
-11 -33 -8 -33 11 0 55 102 71 162 26 100 24 95 34 78 6 -8 10 -10 10 -4 0 5
-6 16 -12 23 -11 10 -10 11 3 6 19 -7 35 10 19 20 -6 4 -8 11 -5 16 8 11 7 11
-31 -5z"/>
<path d="M4350 2246 c0 -2 16 -14 35 -26 20 -12 42 -29 51 -37 13 -13 21 -14
59 -3 25 7 50 19 56 26 14 17 -2 19 -19 2 -9 -9 -12 -8 -12 5 0 10 -5 14 -15
11 -8 -4 -15 -2 -15 3 0 5 -6 10 -12 11 -7 0 -24 4 -38 7 -19 5 -21 4 -10 -4
26 -18 3 -23 -35 -7 -40 17 -45 18 -45 12z"/>
<path d="M4380 2190 c0 -7 24 -20 36 -20 13 0 1 19 -16 23 -11 3 -20 2 -20 -3z"/>
<path d="M4110 2182 c-14 -2 -29 -8 -35 -13 -9 -9 54 -1 64 7 8 7 -4 10 -29 6z"/>
<path d="M4657 2150 c-38 -97 -44 -120 -32 -110 18 15 48 95 42 112 -4 10 -6
10 -10 -2z"/>
<path d="M4515 2110 c-3 -5 -1 -10 4 -10 6 0 11 5 11 10 0 6 -2 10 -4 10 -3 0
-8 -4 -11 -10z"/>
<path d="M1654 1972 c44 -123 123 -230 257 -345 30 -26 37 -27 88 -21 59 7 80
14 42 14 -12 0 -24 7 -27 15 -4 10 -14 13 -33 9 -19 -4 -22 -3 -12 4 11 8 9
11 -10 15 -17 3 -12 5 16 6 22 2 33 5 25 8 -8 4 -19 12 -25 19 -5 7 -19 14
-30 17 -18 4 -18 5 2 6 34 2 36 18 4 32 -16 7 -27 17 -25 21 3 4 -10 9 -28 9
-30 2 -31 2 -5 6 15 2 27 8 27 13 0 4 10 6 23 3 19 -4 20 -3 4 7 -9 6 -22 8
-28 5 -6 -4 -18 0 -27 8 -9 8 -26 17 -37 20 -13 3 -9 5 13 6 17 0 32 6 32 12
0 6 -7 8 -16 5 -8 -3 -12 -2 -9 4 3 6 -1 10 -9 10 -8 0 -18 4 -21 10 -3 6 1 7
12 4 17 -5 17 -5 0 6 -9 6 -22 8 -27 5 -5 -3 -7 0 -4 8 3 8 -2 20 -12 27 -14
12 -17 12 -25 -3 -6 -9 -15 -17 -20 -17 -6 0 -3 7 6 16 14 14 14 19 3 29 -17
16 -93 45 -118 45 -18 0 -18 -2 -6 -38z"/>
<path d="M1575 1936 c-27 -55 -45 -136 -30 -136 4 0 14 8 22 18 10 12 16 14
19 4 3 -6 10 -10 15 -6 16 9 10 -9 -20 -63 -16 -29 -26 -53 -22 -53 5 0 16 17
25 38 11 25 24 38 37 38 10 0 19 -1 19 -2 0 -1 -7 -21 -15 -44 -20 -58 -18
-83 4 -40 30 61 31 62 46 46 10 -10 12 -23 5 -47 -4 -19 -11 -47 -14 -64 -5
-25 -2 -23 17 14 12 24 27 44 32 45 6 0 12 -24 15 -54 l5 -55 14 58 c8 32 18
60 22 63 10 6 42 -27 34 -34 -3 -4 -10 0 -15 8 -6 8 -10 11 -10 7 0 -4 7 -18
16 -32 8 -13 14 -29 13 -37 -1 -7 0 -29 1 -48 2 -33 3 -32 14 17 6 28 14 55
18 59 4 4 -22 39 -58 78 -36 39 -74 87 -85 108 -10 20 -23 39 -27 42 -5 3 -19
32 -33 66 -13 33 -27 60 -31 60 -3 0 -19 -24 -33 -54z"/>
<path d="M1600 1640 c0 -5 5 -10 11 -10 5 0 7 5 4 10 -3 6 -8 10 -11 10 -2 0
-4 -4 -4 -10z"/>
<path d="M2006 1592 l-29 -4 29 -19 c34 -22 52 -23 75 -6 15 11 13 14 -15 22
-17 6 -44 9 -60 7z"/>
<path d="M1902 1545 c0 -16 2 -22 5 -12 2 9 2 23 0 30 -3 6 -5 -1 -5 -18z"/>
<path d="M3140 1256 c0 -52 3 -97 8 -99 4 -3 7 39 7 94 0 54 -3 99 -7 99 -5 0
-8 -42 -8 -94z"/>
<path d="M3762 1280 c-1 -40 3 -70 8 -70 12 0 13 127 2 134 -5 3 -10 -26 -10
-64z"/>
<path d="M3301 1265 c1 -19 18 -51 18 -35 0 8 -4 22 -9 30 -5 8 -9 11 -9 5z"/>
<path d="M3758 1177 c-3 -19 -2 -25 4 -19 6 6 8 18 6 28 -3 14 -5 12 -10 -9z"/>
<path d="M2910 931 c0 -6 5 -13 10 -16 6 -3 10 -12 10 -20 0 -7 14 -44 31 -82
24 -54 32 -65 40 -51 6 12 0 32 -25 77 -19 33 -37 69 -41 80 -6 21 -25 29 -25
12z"/>
<path d="M3110 910 c0 -16 5 -30 10 -30 6 0 10 14 10 30 0 17 -4 30 -10 30 -5
0 -10 -13 -10 -30z"/>
<path d="M3203 933 l37 -4 0 -85 c0 -49 4 -84 10 -84 9 0 15 22 11 44 -2 12
-2 68 1 96 2 20 10 26 38 31 21 4 2 6 -50 6 -47 0 -68 -2 -47 -4z"/>
<path d="M3397 905 c-20 -43 -22 -60 -3 -25 l14 25 13 -28 c7 -15 18 -27 26
-27 11 0 10 7 -2 38 -23 54 -29 56 -48 17z"/>
<path d="M3540 850 c0 -65 3 -90 13 -90 9 0 11 23 9 90 -2 49 -8 90 -13 90 -5
0 -9 -40 -9 -90z"/>
<path d="M3690 895 c0 -33 4 -45 13 -42 7 2 12 20 12 42 0 22 -5 40 -12 43 -9
2 -13 -10 -13 -43z"/>
<path d="M3770 913 c0 -14 3 -23 6 -20 6 6 44 -35 44 -47 0 -11 35 -86 40 -86
3 0 15 22 28 48 12 26 16 38 7 28 -8 -11 -15 -23 -15 -28 0 -25 -22 0 -54 62
-39 74 -56 87 -56 43z"/>
<path d="M3927 903 c-11 -24 -12 -31 -4 -20 8 9 17 17 21 17 3 0 6 -31 6 -70
0 -39 4 -70 10 -70 5 0 9 38 9 90 -1 100 -14 116 -42 53z"/>
<path d="M3110 815 c0 -30 5 -55 10 -55 6 0 10 25 10 55 0 30 -4 55 -10 55 -5
0 -10 -25 -10 -55z"/>
<path d="M3025 839 c-4 -6 -5 -12 -2 -15 2 -3 7 2 10 11 7 17 1 20 -8 4z"/>
<path d="M3440 836 c0 -12 43 -76 51 -76 10 0 -6 47 -23 67 -10 12 -28 18 -28
9z"/>
<path d="M3690 801 c0 -30 4 -41 16 -41 11 0 14 9 12 37 -4 52 -28 56 -28 4z"/>
<path d="M3356 813 c-6 -14 -5 -15 5 -6 7 7 10 15 7 18 -3 3 -9 -2 -12 -12z"/>
<path d="M3641 594 c0 -11 3 -14 6 -6 3 7 2 16 -1 19 -3 4 -6 -2 -5 -13z"/>
</g>
</svg>
